<?xml version="1.0" standalone="no"?>
<!DOCTYPE svg PUBLIC "-//W3C//DTD SVG 20010904//EN"
 "http://www.w3.org/TR/2001/REC-SVG-20010904/DTD/svg10.dtd">
<svg version="1.0" xmlns="http://www.w3.org/2000/svg"
 width="300.000000pt" height="168.000000pt" viewBox="0 0 300.000000 168.000000"
 preserveAspectRatio="xMidYMid meet">

<g transform="translate(0.000000,168.000000) scale(0.100000,-0.100000)"
fill="#000000" stroke="none">
<path d="M0 840 l0 -840 1500 0 1500 0 0 840 0 840 -1500 0 -1500 0 0 -840z
m724 323 c2 -10 14 -83 26 -163 12 -80 23 -146 24 -147 1 -1 12 64 25 145 32
204 19 183 109 180 l77 -3 5 -270 c3 -148 7 -254 9 -235 1 19 19 141 39 270
l37 235 82 3 81 3 10 -63 c6 -35 26 -162 44 -283 l33 -220 3 283 2 282 68 0
c91 0 136 -14 184 -58 l41 -37 -7 48 -7 47 65 0 c36 0 66 -4 66 -9 0 -20 41
-318 46 -341 4 -16 16 43 33 160 l26 185 173 3 172 2 0 -65 0 -65 -55 0 -55 0
0 -75 0 -75 55 0 55 0 0 -60 0 -60 -55 0 -55 0 0 -75 0 -75 55 0 55 0 0 -65 0
-65 -115 0 -115 0 -2 288 -3 287 -45 -285 -45 -285 -71 -3 c-84 -3 -71 -30
-110 216 l-29 174 -18 -44 c-10 -24 -27 -52 -38 -64 -19 -20 -18 -21 16 -139
19 -65 35 -124 35 -132 0 -9 -16 -13 -55 -13 -64 0 -61 -4 -96 136 -14 55 -26
84 -35 84 -11 0 -14 -23 -14 -110 l0 -111 -117 3 -118 3 -3 30 c-6 71 -9 75
-56 75 l-45 0 -6 -55 -7 -55 -119 0 -119 0 -1 143 -1 142 -14 -75 c-7 -41 -18
-105 -25 -142 l-11 -68 -34 0 c-19 0 -34 3 -34 8 -1 4 -11 68 -24 142 l-24
135 -1 -143 -1 -143 -62 3 -63 3 -3 325 c-1 179 0 330 3 337 3 9 28 13 79 13
63 0 75 -3 80 -17z m1606 -258 l0 -275 50 0 50 0 0 -65 0 -65 -110 0 -110 0 0
340 0 340 60 0 60 0 0 -275z"/>
<path d="M1450 945 c0 -58 3 -105 8 -105 20 0 52 33 62 66 21 62 -11 144 -55
144 -12 0 -15 -18 -15 -105z"/>
<path d="M1147 898 c-4 -40 -10 -97 -13 -125 l-7 -53 32 0 c17 0 31 1 31 3 -1
21 -31 241 -33 244 -2 2 -7 -29 -10 -69z"/>
</g>
</svg>
