<?xml version="1.0" standalone="no"?>
<!DOCTYPE svg PUBLIC "-//W3C//DTD SVG 20010904//EN"
 "http://www.w3.org/TR/2001/REC-SVG-20010904/DTD/svg10.dtd">
<svg version="1.0" xmlns="http://www.w3.org/2000/svg"
 width="900.000000pt" height="600.000000pt" viewBox="0 0 900.000000 600.000000"
 preserveAspectRatio="xMidYMid meet">

<g transform="translate(0.000000,600.000000) scale(0.100000,-0.100000)"
fill="#000000" stroke="none">
<path d="M2527 4739 c-81 -19 -131 -62 -169 -144 -18 -40 -23 -67 -22 -130 1
-132 51 -221 221 -397 90 -92 103 -110 94 -126 -6 -11 -25 -22 -42 -26 -17 -3
-192 -6 -388 -6 l-356 0 0 -175 0 -175 533 0 c507 0 535 1 589 20 122 43 177
121 176 248 -1 139 -64 256 -224 415 -55 54 -99 104 -99 112 0 31 40 35 389
35 l351 0 0 -415 0 -415 190 0 190 0 0 415 0 415 190 0 190 0 0 180 0 180
-887 -1 c-489 -1 -905 -5 -926 -10z"/>
<path d="M4469 4168 c-105 -321 -194 -589 -196 -595 -4 -10 42 -13 209 -13
l215 0 35 103 35 102 179 3 179 2 35 -102 36 -103 432 -3 432 -2 2 194 3 194
185 -194 185 -194 350 0 350 0 0 175 0 175 -291 0 -292 0 -42 56 c-23 30 -40
57 -38 58 1 2 33 13 70 25 121 40 202 111 235 207 23 67 14 223 -16 282 -30
59 -98 125 -161 157 -98 50 -151 55 -577 55 l-393 0 0 -567 0 -568 -189 565
-188 565 -296 3 -296 2 -192 -582z m566 81 c41 -123 75 -227 75 -231 0 -5 -72
-8 -160 -8 -88 0 -160 3 -160 7 0 13 164 462 167 459 2 -2 37 -104 78 -227z
m1376 172 c25 -25 29 -37 29 -84 0 -39 -6 -62 -19 -78 -19 -23 -24 -24 -190
-27 l-171 -3 0 110 0 111 161 0 161 0 29 -29z"/>
<path d="M6415 3410 c-173 -5 -194 -7 -233 -28 -55 -30 -96 -87 -117 -166 -42
-154 27 -302 232 -502 46 -44 83 -86 83 -92 0 -6 -10 -18 -22 -26 -19 -14 -70
-16 -349 -16 l-326 0 -41 52 c-22 29 -39 55 -36 59 2 4 19 11 37 15 104 22
209 100 255 189 22 43 26 63 25 135 0 47 -5 103 -12 126 -25 93 -113 182 -224
228 -50 20 -69 21 -489 24 l-438 3 -1 -558 -1 -558 -186 558 -187 557 -297 0
-297 0 -192 -582 c-106 -321 -194 -589 -197 -595 -3 -10 43 -13 210 -13 l214
0 38 110 38 110 177 0 176 0 39 -110 38 -110 429 0 429 0 0 195 c0 107 3 195
8 194 4 0 90 -88 192 -195 l185 -195 545 3 c518 3 547 4 594 23 116 47 172
134 170 260 -3 133 -67 249 -227 407 -54 54 -97 103 -95 110 11 33 52 38 311
38 l257 0 0 181 0 180 -262 -3 c-145 -2 -348 -5 -453 -8z m-2246 -500 c39
-118 71 -218 71 -223 0 -4 -72 -7 -161 -7 -125 0 -160 3 -156 13 2 6 40 110
83 229 43 120 81 215 85 210 3 -4 39 -104 78 -222z m1372 181 c32 -32 39 -76
24 -147 -8 -36 -46 -44 -215 -44 l-160 0 0 110 0 110 161 0 161 0 29 -29z"/>
<path d="M1870 3403 c0 -5 81 -271 179 -593 l179 -585 193 0 194 0 62 245 c34
135 62 247 63 250 0 3 35 -109 77 -247 l76 -253 193 0 c107 0 194 3 194 8 0 4
67 271 149 595 l148 587 -193 0 c-175 0 -193 -2 -198 -17 -3 -10 -26 -119 -52
-243 -26 -124 -50 -228 -53 -232 -3 -4 -42 105 -86 243 l-79 249 -180 -2 -180
-3 -68 -244 c-37 -134 -69 -246 -71 -248 -4 -3 -17 38 -120 364 l-42 133 -192
0 c-106 0 -193 -3 -193 -7z"/>
<path d="M2530 1885 c0 -31 3 -35 25 -35 22 0 25 4 25 35 0 31 -3 35 -25 35
-22 0 -25 -4 -25 -35z"/>
<path d="M3259 1905 c-58 -18 -125 -83 -141 -136 -9 -31 -16 -39 -35 -39 -13
0 -35 -11 -48 -25 -23 -22 -25 -32 -25 -108 0 -74 3 -86 23 -105 13 -12 35
-22 50 -22 22 0 27 -5 33 -35 11 -60 165 -185 227 -185 62 0 210 118 227 181
9 34 15 39 40 39 49 0 70 39 70 132 0 70 -3 82 -25 103 -13 14 -35 25 -48 25
-19 0 -26 8 -35 38 -14 47 -66 102 -118 127 -50 24 -137 29 -195 10z m153
-251 c17 -9 53 -17 80 -18 l48 -1 -1 -35 c0 -19 -3 -66 -8 -104 -7 -69 -8 -71
-65 -122 -65 -59 -105 -79 -140 -70 -30 7 -143 92 -157 117 -5 11 -13 63 -16
117 l-6 97 50 1 c56 2 104 23 130 58 l18 23 18 -24 c10 -13 33 -31 49 -39z"/>
<path d="M3253 1544 c-8 -22 18 -37 36 -20 7 8 10 19 7 25 -10 16 -36 13 -43
-5z"/>
<path d="M3394 1549 c-3 -6 0 -17 7 -25 18 -17 44 -2 36 20 -7 18 -33 21 -43
5z"/>
<path d="M4065 1906 c-40 -17 -82 -67 -95 -114 -18 -65 -26 -62 160 -62 189 0
181 -4 160 70 -11 41 -61 94 -103 109 -38 15 -85 13 -122 -3z m105 -46 c27
-50 -32 -92 -73 -52 -18 18 -19 25 -9 47 15 32 66 35 82 5z m77 -76 c3 -8 1
-20 -6 -27 -14 -14 -47 15 -37 32 10 16 36 13 43 -5z"/>
<path d="M4729 1899 c-43 -25 -68 -63 -71 -110 l-3 -34 264 -3 264 -2 -6 41
c-7 52 -33 88 -78 111 -28 15 -61 18 -184 18 -134 0 -154 -3 -186 -21z"/>
<path d="M5572 1899 c-75 -37 -111 -109 -112 -219 0 -29 -16 -88 -46 -167 -45
-117 -46 -124 -31 -147 41 -62 237 -123 361 -112 119 11 257 70 285 124 6 12
-5 53 -40 142 -40 102 -49 137 -49 187 0 73 -11 107 -48 147 -45 48 -96 66
-192 66 -67 0 -94 -5 -128 -21z m96 -194 c34 -14 42 -14 77 1 48 20 94 12 129
-22 31 -32 131 -283 118 -296 -6 -6 -30 44 -62 127 -36 91 -62 143 -78 156
-29 22 -86 25 -122 5 -21 -12 -30 -12 -59 0 -52 22 -98 18 -124 -10 -12 -13
-44 -81 -71 -150 -46 -121 -59 -145 -69 -129 -6 10 97 268 115 290 15 19 65
42 90 43 10 0 35 -7 56 -15z m-10 -61 c17 -12 22 -24 20 -47 l-3 -32 -65 0
c-60 0 -65 2 -68 23 -8 54 68 90 116 56z m172 1 c31 -16 50 -59 33 -76 -6 -6
-37 -9 -69 -7 -48 2 -59 6 -62 21 -12 64 36 94 98 62z m-102 -117 c7 -7 12
-22 12 -35 0 -20 -5 -23 -35 -23 -32 0 -35 3 -35 29 0 38 33 54 58 29z m-38
-133 c0 -36 -3 -45 -17 -45 -15 0 -18 9 -18 45 0 36 3 45 18 45 14 0 17 -9 17
-45z m60 0 c0 -38 -3 -45 -20 -45 -17 0 -20 7 -20 45 0 38 3 45 20 45 17 0 20
-7 20 -45z m-120 -15 c0 -16 -4 -30 -10 -30 -11 0 -14 43 -3 53 11 12 13 8 13
-23z m168 -3 c2 -19 -1 -27 -12 -27 -11 0 -16 10 -16 31 0 38 24 35 28 -4z
m62 -33 c0 -8 -7 -14 -15 -14 -15 0 -21 21 -9 33 10 9 24 -2 24 -19z m-282 4
c-3 -7 -11 -13 -18 -13 -7 0 -15 6 -17 13 -3 7 4 12 17 12 13 0 20 -5 18 -12z"/>
<path d="M6402 1913 c-17 -3 -22 -9 -17 -21 13 -34 35 -148 35 -187 l0 -40
-27 45 c-15 25 -42 65 -62 90 l-35 45 33 -30 c18 -16 42 -45 53 -63 11 -18 22
-32 23 -30 6 5 -23 147 -34 165 -8 15 -16 11 -65 -38 -31 -31 -56 -61 -56 -67
0 -6 10 -17 23 -23 34 -18 109 -81 103 -86 -3 -3 -21 8 -41 25 -19 18 -49 39
-66 47 l-30 16 -20 -47 c-28 -62 -58 -212 -60 -298 -2 -84 9 -96 91 -96 45 0
61 -4 75 -21 15 -16 27 -19 55 -14 26 4 42 0 60 -14 24 -19 25 -19 52 0 20 15
36 18 61 14 25 -5 37 -2 51 14 15 17 31 21 76 21 84 0 95 12 92 98 -4 89 -34
235 -61 296 l-20 47 -30 -16 c-17 -8 -47 -29 -66 -47 -20 -17 -38 -28 -41 -25
-6 5 69 68 104 86 12 6 22 17 22 23 0 6 -25 36 -56 67 -44 44 -57 53 -64 41
-10 -18 -41 -163 -36 -168 2 -2 13 12 24 30 11 18 35 47 53 63 l33 30 -35 -45
c-20 -25 -48 -65 -63 -90 l-28 -45 6 71 c3 38 12 92 21 119 8 27 13 51 10 53
-6 6 -119 11 -143 5z m16 -305 c-3 -7 -13 -13 -23 -13 -10 0 -20 6 -22 13 -3
7 5 12 22 12 17 0 25 -5 23 -12z m142 -4 c0 -10 -7 -14 -22 -12 -32 5 -35 28
-4 28 17 0 26 -5 26 -16z m-45 -61 c16 -16 16 -17 -4 -25 -11 -4 -21 -12 -21
-18 0 -5 -11 -10 -25 -10 -14 0 -25 5 -25 10 0 6 -10 14 -21 18 -20 8 -20 9
-4 25 9 9 32 17 50 17 18 0 41 -8 50 -17z m-135 -18 c0 -8 -6 -15 -14 -15 -20
0 -66 -40 -76 -66 -10 -24 -30 -33 -30 -14 0 29 34 70 72 89 51 25 48 25 48 6z
m222 -7 c37 -21 68 -61 68 -88 0 -19 -20 -10 -30 14 -10 26 -56 66 -76 66 -8
0 -14 7 -14 15 0 20 5 19 52 -7z m-127 -99 c47 -12 85 -25 85 -30 0 -10 -150
-12 -174 -3 -16 6 -22 35 -9 47 8 9 2 10 98 -14z"/>
<path d="M2435 1886 c-64 -29 -138 -111 -160 -175 -10 -32 -23 -51 -35 -54
-24 -6 -28 -55 -5 -63 8 -4 15 -12 15 -19 0 -7 -7 -15 -15 -19 -20 -7 -19 -53
1 -64 19 -11 33 -70 34 -139 l0 -53 43 0 44 0 -28 58 c-74 150 -50 350 53 449
18 18 54 41 81 53 26 11 47 27 47 35 0 21 -17 19 -75 -9z"/>
<path d="M2610 1896 c0 -7 24 -26 54 -40 107 -52 157 -139 164 -282 5 -99 -12
-180 -50 -241 l-20 -33 45 0 c44 0 45 0 41 33 -4 49 18 157 33 157 8 0 13 13
13 35 0 19 -4 35 -10 35 -5 0 -10 7 -10 15 0 8 5 15 10 15 6 0 10 15 10 34 0
24 -5 35 -17 38 -11 3 -25 26 -35 55 -23 65 -85 135 -150 167 -59 29 -78 32
-78 12z"/>
<path d="M2465 1823 c-49 -25 -92 -72 -117 -127 -32 -72 -32 -228 -1 -298 l22
-48 70 0 c41 0 71 4 71 10 0 6 23 10 50 10 28 0 50 -5 50 -10 0 -7 27 -10 73
-8 l72 3 19 55 c25 72 26 198 3 265 -9 28 -31 67 -48 88 -39 47 -105 83 -124
67 -13 -11 -80 -9 -92 3 -9 9 -14 9 -48 -10z m-38 -262 c0 -54 -3 -68 -13 -64
-10 4 -14 25 -14 69 0 47 4 64 14 64 10 0 13 -18 13 -69z m51 2 c2 -46 -1 -62
-12 -66 -11 -5 -14 7 -14 64 1 88 22 89 26 2z m192 43 c0 -14 -5 -28 -10 -31
-7 -4 -7 -12 0 -25 16 -29 13 -60 -5 -54 -11 5 -15 22 -15 70 0 50 3 64 15 64
9 0 15 -9 15 -24z m48 -40 c3 -56 -5 -75 -30 -76 -12 0 -9 38 4 60 10 15 10
22 0 32 -19 19 -15 50 6 46 13 -3 18 -15 20 -62z m-328 -7 c0 -24 -4 -38 -10
-34 -17 10 -11 75 7 75 2 0 3 -18 3 -41z m120 1 c0 -16 -4 -32 -10 -35 -6 -4
-10 10 -10 35 0 25 4 39 10 35 6 -3 10 -19 10 -35z m112 1 c2 -22 0 -37 -4
-35 -8 5 -11 74 -4 74 2 0 6 -18 8 -39z m128 6 c0 -12 -5 -29 -10 -37 -7 -11
-10 -3 -10 28 0 26 4 41 10 37 6 -3 10 -16 10 -28z m-155 -115 c-2 -2 -12 1
-24 7 -13 7 -22 8 -26 1 -3 -5 -11 -10 -17 -10 -6 0 -3 9 7 20 16 18 18 18 40
2 13 -9 22 -18 20 -20z"/>
<path d="M4650 1715 c0 -8 -4 -15 -10 -15 -6 0 -10 -30 -10 -70 0 -52 -4 -72
-14 -76 -8 -3 -19 -18 -26 -33 -13 -32 -4 -63 32 -107 13 -16 30 -48 36 -71
21 -71 98 -110 159 -81 22 10 28 21 29 46 3 63 3 65 24 59 11 -3 23 -1 26 4 7
11 44 12 44 1 0 -5 10 -8 23 -8 19 1 22 -5 25 -47 3 -41 7 -49 28 -57 36 -14
61 -12 100 6 34 16 64 58 64 89 0 8 16 38 35 66 41 61 44 91 10 125 -22 21
-25 34 -25 89 0 37 -4 65 -10 65 -5 0 -10 7 -10 15 0 13 -36 15 -265 15 -229
0 -265 -2 -265 -15z m235 -44 c-41 -37 -111 -81 -130 -81 -28 0 -41 15 -50 58
l-7 32 98 0 c57 0 94 -4 89 -9z m245 -11 c0 -40 -22 -70 -51 -70 -23 0 -129
70 -129 85 0 3 41 5 90 5 83 0 90 -2 90 -20z m-190 -130 c0 -15 -7 -20 -25
-20 -18 0 -25 5 -25 20 0 15 7 20 25 20 18 0 25 -5 25 -20z m-72 -35 c-2 -1
-13 -6 -25 -9 -17 -5 -23 -3 -23 8 0 8 10 22 23 31 21 15 22 14 25 -6 2 -11 2
-22 0 -24z m139 9 c8 -22 -2 -27 -26 -14 -12 6 -21 20 -21 31 0 17 3 18 21 9
11 -6 23 -18 26 -26z m-207 -24 c0 -5 -12 -10 -27 -9 -25 0 -26 1 -8 9 27 12
35 12 35 0z m280 -6 c0 -2 -9 -4 -20 -4 -11 0 -20 4 -20 9 0 5 9 7 20 4 11 -3
20 -7 20 -9z m-289 -120 c17 -21 0 -49 -32 -49 -24 0 -36 23 -25 51 7 19 40
18 57 -2z m310 0 c17 -21 0 -49 -32 -49 -24 0 -36 23 -25 51 7 19 40 18 57 -2z"/>
<path d="M3873 1699 c-27 -10 -31 -32 -33 -202 -1 -112 -5 -148 -20 -188 -11
-27 -20 -52 -20 -54 0 -3 42 -5 94 -5 l95 0 -25 60 c-22 55 -24 73 -24 229 0
168 0 168 -22 168 -13 0 -33 -3 -45 -8z"/>
<path d="M3965 1702 c-3 -3 -5 -77 -5 -166 l0 -160 27 -28 c26 -28 29 -28 143
-28 115 0 117 0 143 28 l28 29 -3 164 -3 164 -162 1 c-90 0 -165 -1 -168 -4z
m252 -53 c6 -6 9 -18 6 -25 -4 -10 -28 -14 -94 -14 -80 0 -89 2 -89 18 0 10 3
22 7 25 11 12 158 8 170 -4z m8 -99 c4 -6 1 -18 -6 -26 -9 -11 -31 -14 -93
-12 -75 3 -81 5 -84 26 -3 21 -1 22 87 22 52 0 93 -4 96 -10z"/>
<path d="M4327 1704 c-4 -4 -7 -83 -7 -175 0 -145 -3 -173 -20 -210 -31 -69
-31 -69 70 -69 50 0 90 4 90 9 0 5 -9 30 -20 56 -17 40 -20 69 -20 199 0 106
-4 157 -12 169 -14 18 -69 33 -81 21z"/>
<path d="M4904 1346 c-8 -33 -1 -91 11 -89 14 4 19 113 6 113 -6 0 -13 -11
-17 -24z"/>
<path d="M4860 1309 c0 -31 4 -48 10 -44 6 3 10 26 10 51 0 24 -4 44 -10 44
-5 0 -10 -23 -10 -51z"/>
<path d="M4955 1348 c-9 -23 -2 -83 10 -83 14 0 19 75 6 88 -7 7 -12 5 -16 -5z"/>
<path d="M2430 1300 c19 -11 57 -27 83 -36 44 -15 52 -15 98 0 27 9 64 25 82
36 l32 20 -165 0 -165 -1 35 -19z"/>
</g>
</svg>
