<?xml version="1.0" standalone="no"?>
<!DOCTYPE svg PUBLIC "-//W3C//DTD SVG 20010904//EN"
 "http://www.w3.org/TR/2001/REC-SVG-20010904/DTD/svg10.dtd">
<svg version="1.0" xmlns="http://www.w3.org/2000/svg"
 width="900.000000pt" height="974.000000pt" viewBox="0 0 900.000000 974.000000"
 preserveAspectRatio="xMidYMid meet">

<g transform="translate(0.000000,974.000000) scale(0.100000,-0.100000)"
fill="#000000" stroke="none">
<path d="M3603 7763 c15 -2 37 -2 50 0 12 2 0 4 -28 4 -27 0 -38 -2 -22 -4z"/>
<path d="M3498 7753 c7 -3 16 -2 19 1 4 3 -2 6 -13 5 -11 0 -14 -3 -6 -6z"/>
<path d="M3798 7743 c7 -3 16 -2 19 1 4 3 -2 6 -13 5 -11 0 -14 -3 -6 -6z"/>
<path d="M3388 7733 c7 -3 16 -2 19 1 4 3 -2 6 -13 5 -11 0 -14 -3 -6 -6z"/>
<path d="M3848 7733 c7 -3 16 -2 19 1 4 3 -2 6 -13 5 -11 0 -14 -3 -6 -6z"/>
<path d="M3510 7693 c-14 -2 -55 -11 -91 -19 l-66 -15 -37 -84 c-20 -46 -36
-88 -36 -93 0 -6 -8 -29 -19 -52 -16 -37 -17 -47 -6 -88 8 -26 16 -59 19 -73
6 -26 6 -26 108 -26 108 0 193 -17 277 -54 40 -18 44 -22 28 -31 -15 -8 -28
-4 -62 21 -24 17 -46 31 -49 31 -3 0 -6 -25 -6 -56 l0 -55 -47 -21 -48 -22 57
-25 57 -25 3 -60 3 -61 34 54 35 54 63 -6 c35 -4 63 -3 63 1 0 4 -18 23 -40
42 l-41 35 16 38 c8 20 19 37 23 37 12 0 118 -92 148 -128 36 -45 40 -35 8 24
l-27 49 40 -38 c37 -35 41 -37 54 -21 12 16 12 17 -4 11 -11 -4 -16 -3 -12 3
3 6 1 10 -6 10 -7 0 -5 8 6 20 21 24 37 26 29 5 -4 -8 -10 -12 -15 -9 -5 3 -9
1 -9 -4 0 -6 7 -13 16 -16 24 -9 27 -8 20 10 -4 12 -2 15 9 10 12 -4 13 -2 5
13 -7 14 -6 21 3 24 6 2 9 7 5 11 -3 4 -15 3 -26 -3 -15 -8 -29 -8 -48 -1 -21
8 -30 8 -36 -2 -6 -9 -8 -7 -5 7 2 11 9 19 15 17 16 -3 15 6 -1 22 -7 7 -22
12 -35 11 -12 -1 -20 1 -17 3 3 3 -4 11 -15 19 -11 8 -20 21 -20 29 0 8 -5 13
-11 12 -6 -2 -14 3 -17 11 -3 8 0 11 6 7 6 -4 16 3 22 14 6 11 15 20 21 20 6
0 3 -7 -5 -16 -22 -22 -20 -28 12 -42 18 -7 20 -10 5 -6 -18 4 -22 2 -17 -10
8 -20 14 -20 40 -2 17 12 22 12 39 0 19 -14 19 -14 -4 -12 -13 2 -26 -3 -29
-11 -3 -9 0 -11 8 -6 7 4 16 2 22 -6 8 -12 10 -12 15 0 3 7 14 22 25 33 18 18
18 19 1 18 -31 -4 -43 0 -43 11 0 8 4 9 13 0 8 -6 16 -9 18 -6 3 2 22 6 42 8
30 4 37 1 33 -10 -4 -9 -1 -13 6 -10 7 2 12 13 10 23 -2 18 -2 18 9 0 9 -14 8
-20 -2 -27 -19 -12 -39 -11 -39 1 0 6 -4 10 -10 10 -5 0 -10 -9 -10 -20 0 -17
5 -19 32 -15 41 8 49 21 43 65 -2 19 -4 36 -5 38 0 1 -9 -2 -20 -8 -16 -9 -18
-8 -14 5 4 8 13 15 20 15 8 0 19 10 25 23 l10 22 -5 -23 c-3 -15 0 -22 7 -19
19 7 43 -10 79 -55 18 -23 27 -39 21 -35 -7 5 -13 4 -13 -2 0 -6 7 -11 15 -11
8 0 15 -7 15 -15 0 -8 6 -15 13 -15 8 0 22 -16 33 -35 10 -19 22 -35 26 -35 5
0 8 -4 8 -9 0 -5 12 -35 27 -67 15 -33 29 -68 30 -78 2 -11 8 -24 13 -31 5 -6
11 -26 14 -45 2 -19 7 -46 11 -60 12 -48 19 -223 8 -217 -6 4 -8 -3 -5 -18 2
-14 1 -33 -3 -42 -8 -18 -12 -39 -17 -78 -2 -11 -12 -28 -23 -38 -11 -10 -15
-16 -10 -13 6 2 11 -4 11 -15 0 -11 -4 -15 -9 -10 -15 15 -40 1 -27 -14 8 -9
3 -14 -19 -18 -24 -5 -29 -11 -27 -31 2 -14 -1 -23 -6 -20 -5 3 -18 -6 -29
-21 -17 -21 -24 -23 -36 -14 -11 10 -14 10 -11 -2 2 -8 -1 -13 -7 -12 -5 1
-11 -10 -11 -23 -2 -29 7 -31 24 -4 7 11 17 20 23 20 7 0 19 8 28 18 9 10 25
22 36 26 11 4 2 -8 -20 -28 -22 -20 -44 -36 -49 -36 -5 0 -14 -7 -21 -16 -6
-9 -22 -17 -36 -18 -13 -1 -23 -6 -22 -12 2 -14 -40 -15 -50 -1 -6 8 -7 5 -3
-7 4 -12 -1 -25 -15 -37 -27 -24 -12 -25 21 -2 24 16 24 16 10 -1 -24 -30 -60
-39 -75 -20 -9 14 -14 14 -20 4 -5 -9 -4 -11 3 -6 7 4 12 1 12 -6 0 -8 -12
-15 -27 -16 -29 -2 -51 -18 -40 -28 4 -4 19 -2 34 5 24 10 26 10 11 -2 -25
-20 -22 -30 5 -16 20 11 21 11 9 -4 -8 -9 -22 -19 -32 -22 -12 -4 -16 -12 -13
-25 7 -25 -28 -28 -47 -5 -11 13 -15 13 -23 3 -6 -10 -7 -9 -4 4 8 23 -19 44
-36 29 -8 -6 -17 -8 -20 -4 -4 3 -7 0 -7 -7 0 -10 -4 -10 -17 2 -14 12 -30 14
-73 8 -30 -4 -83 -5 -116 -3 l-61 5 -5 -34 c-4 -21 1 -45 13 -68 10 -19 18
-29 19 -22 0 8 23 12 78 12 70 1 180 16 256 35 23 6 28 5 22 -6 -4 -8 3 0 15
16 98 128 271 268 402 323 34 15 62 32 62 37 0 6 22 51 48 102 62 123 118 333
88 333 -6 0 -11 15 -11 34 0 54 -26 175 -53 246 -55 146 -126 259 -223 357
-53 52 -160 133 -177 133 -3 0 4 -17 14 -37 26 -51 24 -86 -8 -125 -33 -39
-44 -48 -54 -42 -4 2 -10 0 -13 -4 -3 -5 -28 -7 -56 -4 -33 3 -50 1 -50 -7 0
-6 13 -11 28 -11 15 0 34 -6 41 -12 11 -11 13 -10 8 4 -4 12 -2 15 9 11 13 -5
13 -8 -1 -23 -8 -9 -12 -20 -8 -23 3 -4 1 -7 -6 -7 -6 0 -11 8 -9 18 4 22 -42
24 -59 2 -11 -13 -14 -13 -22 0 -6 8 -8 17 -5 19 3 3 9 -1 14 -9 8 -13 10 -12
10 2 0 10 -13 24 -30 33 -36 19 -40 19 -40 -1 0 -8 -4 -12 -10 -9 -5 3 -10 1
-10 -4 0 -6 -5 -11 -11 -11 -8 0 -8 4 0 13 8 10 7 19 -5 33 -15 18 -15 18 -11
-3 4 -19 1 -23 -21 -23 -23 1 -25 2 -9 11 22 13 22 26 -3 39 -16 9 -18 8 -14
-5 4 -8 1 -21 -5 -29 -6 -7 -7 -17 -3 -22 4 -4 -1 -2 -10 5 -22 17 -23 32 -2
24 13 -5 15 -2 9 18 -4 13 -8 24 -9 25 0 0 -26 15 -57 33 -32 17 -73 49 -92
70 -69 76 -56 138 37 187 31 16 56 32 56 37 0 7 -114 8 -160 0z m-108 -220
c26 -23 23 -59 -7 -79 -56 -37 -114 28 -68 78 20 22 51 23 75 1z m382 -197
c-3 -8 -12 -12 -21 -9 -12 5 -12 7 -1 14 20 13 28 11 22 -5z m243 -22 c-3 -3
-12 -4 -19 -1 -8 3 -5 6 6 6 11 1 17 -2 13 -5z m400 -746 c-3 -8 -6 -5 -6 6
-1 11 2 17 5 13 3 -3 4 -12 1 -19z m-7 -69 c0 -5 -4 -9 -10 -9 -5 0 -10 7 -10
16 0 8 5 12 10 9 6 -3 10 -10 10 -16z m-15 -59 c-3 -6 -13 -10 -20 -10 -12 0
-12 5 -3 25 10 22 13 23 20 10 5 -8 6 -20 3 -25z m-30 -30 c3 -5 1 -10 -4 -10
-6 0 -11 5 -11 10 0 6 2 10 4 10 3 0 8 -4 11 -10z m-55 -14 c0 -3 -4 -8 -10
-11 -5 -3 -10 -1 -10 4 0 6 5 11 10 11 6 0 10 -2 10 -4z m30 -36 c-29 -23 -40
-25 -40 -8 0 6 3 8 6 5 4 -3 16 0 28 8 30 22 35 18 6 -5z m-455 -330 c-3 -5
-12 -10 -18 -10 -7 0 -6 4 3 10 19 12 23 12 15 0z m-272 -47 c-7 -2 -19 -2
-25 0 -7 3 -2 5 12 5 14 0 19 -2 13 -5z"/>
<path d="M3175 7650 c-3 -6 1 -7 9 -4 18 7 21 14 7 14 -6 0 -13 -4 -16 -10z"/>
<path d="M4060 7656 c0 -3 9 -10 20 -16 11 -6 20 -8 20 -6 0 3 -9 10 -20 16
-11 6 -20 8 -20 6z"/>
<path d="M3218 7602 c-156 -80 -272 -174 -381 -312 -15 -19 -23 -25 -17 -12
21 44 0 21 -25 -27 -72 -144 -113 -357 -95 -495 12 -90 34 -182 55 -237 8 -20
11 -39 8 -43 -4 -3 -43 -7 -87 -8 -68 -1 -60 -2 49 -8 146 -8 234 -27 349 -77
156 -66 291 -178 397 -327 27 -38 49 -65 49 -60 0 21 -96 143 -165 209 -40 39
-105 90 -144 115 -69 43 -74 48 -115 135 -59 120 -70 176 -69 325 1 245 63
387 188 434 44 17 45 19 39 52 -4 20 -12 54 -19 77 -11 38 -9 48 16 117 15 41
39 101 53 133 14 31 22 57 17 57 -4 0 -51 -22 -103 -48z"/>
<path d="M3134 7624 c-18 -14 -18 -15 4 -4 12 6 22 13 22 15 0 8 -5 6 -26 -11z"/>
<path d="M3041 7560 c-13 -11 -19 -20 -14 -20 6 0 18 9 28 20 23 25 17 25 -14
0z"/>
<path d="M4235 7530 c10 -11 20 -20 23 -20 3 0 -3 9 -13 20 -10 11 -20 20 -23
20 -3 0 3 -9 13 -20z"/>
<path d="M5686 7532 c-2 -4 42 -8 99 -8 57 0 101 4 99 8 -3 4 -47 8 -99 8 -52
0 -96 -4 -99 -8z"/>
<path d="M2949 7473 l-34 -38 38 34 c20 19 37 36 37 38 0 8 -8 0 -41 -34z"/>
<path d="M4310 7455 c13 -14 26 -25 28 -25 3 0 -5 11 -18 25 -13 14 -26 25
-28 25 -3 0 5 -11 18 -25z"/>
<path d="M5450 7470 c-8 -5 -10 -10 -5 -10 6 0 17 5 25 10 8 5 11 10 5 10 -5
0 -17 -5 -25 -10z"/>
<path d="M5615 7445 c-237 -52 -451 -183 -595 -366 -23 -30 -45 -53 -48 -51
-9 6 -42 -53 -58 -103 -52 -165 -68 -289 -53 -407 7 -49 15 -86 19 -81 4 4 15
29 24 56 11 30 31 57 53 74 l35 27 -5 95 -4 96 66 68 66 68 -48 -20 c-27 -12
-57 -21 -67 -21 -18 0 -70 53 -70 71 0 18 16 9 38 -21 34 -46 33 -46 224 69
40 24 88 56 107 70 33 25 40 26 171 26 l137 0 59 -36 c32 -20 75 -39 96 -42
20 -3 54 -17 75 -31 38 -25 104 -46 188 -60 22 -4 53 -12 68 -18 23 -9 31 -8
38 3 8 13 13 6 10 -13 -2 -13 50 -21 62 -9 6 6 7 11 3 11 -5 0 -1 12 9 26 9
14 14 28 11 31 -8 8 -27 -7 -37 -31 -8 -18 -9 -18 -4 6 4 22 2 26 -10 22 -8
-4 -15 -1 -15 6 0 6 5 8 12 4 8 -5 9 -2 4 12 -4 10 -4 15 0 12 3 -4 15 3 26
15 l20 22 -16 -25 c-22 -33 -20 -38 9 -36 14 0 25 7 25 14 0 7 -4 10 -10 7 -5
-3 -10 -2 -10 4 0 5 10 11 23 13 15 2 22 10 21 24 0 16 4 20 20 16 11 -3 15
-7 8 -10 -18 -6 -15 -42 4 -42 8 0 12 -4 9 -10 -6 -9 11 -14 43 -13 10 1 10
-2 0 -15 -7 -9 -8 -13 -2 -9 6 3 17 -3 24 -14 22 -30 33 -23 27 17 -7 42 3 66
45 110 l30 32 -34 38 c-33 37 -182 154 -198 154 -4 0 1 -17 11 -37 25 -48 24
-84 -1 -116 -12 -15 -22 -30 -23 -34 -1 -4 -12 -8 -25 -9 -24 -3 -61 -40 -62
-61 0 -7 -4 -13 -10 -13 -5 0 -7 7 -4 15 7 17 -11 21 -21 5 -3 -5 -12 -10 -18
-10 -7 0 -4 6 5 14 10 7 15 15 13 18 -3 3 6 4 20 3 14 -2 27 1 31 6 8 14 -50
11 -65 -3 -8 -7 -11 -8 -8 -2 7 12 -101 40 -136 36 -10 -1 -16 2 -13 7 6 10
-24 25 -32 16 -3 -3 0 -5 6 -5 7 0 12 -6 12 -12 -1 -7 -9 -3 -19 10 -11 12
-22 22 -26 22 -14 0 -124 81 -148 109 -58 70 -40 135 53 184 30 15 56 30 59
33 10 10 -169 1 -224 -11z m-46 -219 c28 -51 -24 -103 -74 -76 -48 25 -21 100
35 100 18 0 31 -8 39 -24z m311 -146 c0 -5 -2 -10 -4 -10 -3 0 -8 5 -11 10 -3
6 -1 10 4 10 6 0 11 -4 11 -10z m83 -5 c-3 -9 -8 -14 -10 -11 -3 3 -2 9 2 15
9 16 15 13 8 -4z m-23 1 c0 -2 -7 -7 -16 -10 -8 -3 -12 -2 -9 4 6 10 25 14 25
6z m90 -18 c0 -4 -4 -8 -9 -8 -6 0 -12 4 -15 8 -3 5 1 9 9 9 8 0 15 -4 15 -9z
m155 -8 c-7 -21 4 -27 21 -11 5 5 18 5 29 1 18 -8 18 -9 -5 -11 -14 -1 -35 -3
-47 -4 -19 -2 -20 0 -11 21 14 29 22 32 13 4z m-209 -10 c8 0 14 -4 14 -10 0
-5 -7 -7 -15 -4 -8 4 -15 1 -15 -5 0 -6 -4 -11 -10 -11 -5 0 -6 8 -3 17 5 13
2 15 -11 10 -11 -4 -15 -3 -11 4 4 6 14 8 22 5 8 -3 21 -6 29 -6z m94 6 c0 -3
-4 -8 -10 -11 -5 -3 -10 -1 -10 4 0 6 5 11 10 11 6 0 10 -2 10 -4z m-55 -35
c-3 -6 -11 -11 -17 -11 -6 0 -6 6 2 15 14 17 26 13 15 -4z m70 -20 c-6 -5 -25
10 -25 20 0 5 6 4 14 -3 8 -7 12 -15 11 -17z m-35 -11 c-13 -9 -13 -11 0 -20
13 -8 13 -11 1 -22 -9 -8 -11 -9 -7 -1 3 6 2 14 -4 18 -5 3 -10 1 -10 -6 0 -7
-3 -10 -6 -7 -9 9 15 48 29 48 8 0 6 -4 -3 -10z m70 0 c0 -5 -5 -10 -11 -10
-5 0 -7 5 -4 10 3 6 8 10 11 10 2 0 4 -4 4 -10z m-23 -36 c-3 -3 -12 -4 -19
-1 -8 3 -5 6 6 6 11 1 17 -2 13 -5z"/>
<path d="M2889 7403 c-13 -16 -12 -17 4 -4 16 13 21 21 13 21 -2 0 -10 -8 -17
-17z"/>
<path d="M5279 7379 l-24 -20 28 17 c15 9 27 18 27 20 0 8 -8 4 -31 -17z"/>
<path d="M4395 7346 c10 -14 19 -26 22 -26 7 0 -17 39 -28 46 -6 3 -3 -5 6
-20z"/>
<path d="M6350 7336 c0 -2 8 -10 18 -17 15 -13 16 -12 3 4 -13 16 -21 21 -21
13z"/>
<path d="M5175 7305 c-16 -14 -25 -25 -19 -25 6 0 21 11 34 25 30 32 24 31
-15 0z"/>
<path d="M6435 7260 c27 -27 51 -50 54 -50 3 0 -17 23 -44 50 -27 28 -51 50
-54 50 -3 0 17 -22 44 -50z"/>
<path d="M4080 7290 c-8 -5 -11 -12 -7 -16 4 -4 13 -2 19 4 15 15 7 24 -12 12z"/>
<path d="M4095 7267 c-12 -7 -19 -20 -17 -29 4 -20 4 -20 26 -12 9 3 13 10 10
15 -3 6 0 16 6 24 14 17 4 18 -25 2z"/>
<path d="M4134 7244 c3 -9 6 -18 6 -20 0 -3 4 -3 10 1 11 7 2 35 -12 35 -6 0
-7 -7 -4 -16z"/>
<path d="M5084 7213 c-23 -31 -24 -34 -5 -18 22 19 46 55 38 55 -3 0 -17 -17
-33 -37z"/>
<path d="M3958 7178 c-10 -12 -18 -27 -18 -33 1 -12 40 33 40 46 0 13 -3 11
-22 -13z"/>
<path d="M4037 7177 c-24 -7 -35 -16 -30 -22 4 -5 1 -4 -7 2 -11 8 -18 8 -27
-2 -6 -7 -9 -16 -6 -19 4 -3 -5 -6 -18 -7 l-24 0 23 -10 c15 -5 30 -5 42 1 10
5 26 7 34 4 9 -3 16 -1 16 6 0 6 -4 8 -10 5 -5 -3 -10 -1 -10 4 0 6 8 11 18
11 9 0 23 9 30 20 7 11 11 20 10 19 -2 0 -20 -6 -41 -12z"/>
<path d="M4175 7180 c3 -5 8 -10 11 -10 2 0 4 5 4 10 0 6 -5 10 -11 10 -5 0
-7 -4 -4 -10z"/>
<path d="M5022 7133 c-26 -38 -34 -53 -29 -53 2 0 16 18 31 40 29 45 28 56 -2
13z"/>
<path d="M6530 7146 c0 -2 8 -10 18 -17 15 -13 16 -12 3 4 -13 16 -21 21 -21
13z"/>
<path d="M5450 7071 c-19 -4 -55 -20 -80 -36 -61 -39 -171 -95 -187 -95 -7 0
-51 -34 -98 -76 l-86 -77 3 -104 c3 -110 3 -111 -50 -142 -7 -4 -22 -34 -34
-67 -11 -32 -25 -64 -29 -70 -5 -6 -7 -19 -3 -28 5 -12 0 -16 -22 -17 -16 0 3
-7 43 -14 137 -25 259 -74 374 -153 79 -53 206 -178 256 -252 37 -55 108 -195
117 -232 5 -20 13 -28 29 -28 43 0 68 -12 62 -29 -3 -11 15 -36 55 -76 33 -33
60 -55 60 -50 0 6 -14 55 -30 110 -23 77 -26 103 -17 115 6 8 33 42 60 75 l50
60 -56 -56 -56 -56 -53 5 c-117 10 -118 10 -170 97 -69 115 -147 206 -235 275
-43 33 -88 69 -100 79 -27 23 -51 102 -65 215 -19 158 18 366 80 452 34 47
113 92 176 100 53 8 55 4 30 -69 -14 -42 -19 -47 -52 -52 -21 -3 -50 -9 -66
-13 l-28 -7 60 -47 60 -47 -13 -43 c-7 -24 -18 -56 -24 -72 -6 -16 -9 -31 -7
-34 3 -3 33 18 67 46 l62 50 75 -34 c41 -19 76 -34 78 -34 12 0 -2 32 -35 80
l-38 55 32 40 c18 22 40 52 50 67 l17 28 -59 -6 -59 -6 -32 49 c-18 27 -32 53
-32 58 0 4 30 4 68 0 180 -18 306 -78 433 -208 l61 -62 -21 42 c-29 59 -27 62
17 19 l39 -37 -16 60 c-8 34 -19 61 -24 61 -4 0 -5 -5 -1 -12 4 -7 -6 -3 -22
8 -16 12 -63 29 -104 40 -41 10 -93 29 -115 43 -21 13 -61 30 -88 37 -27 7
-67 24 -88 39 -58 38 -140 51 -219 36z m286 -1379 c-16 -2 -32 0 -37 5 -5 5 7
7 29 4 34 -5 35 -6 8 -9z"/>
<path d="M4975 7059 c-4 -6 -5 -12 -2 -15 2 -3 7 2 10 11 7 17 1 20 -8 4z"/>
<path d="M5289 7038 c-24 -18 -66 -45 -94 -60 -52 -29 -52 -35 0 -15 37 14
185 97 185 103 0 15 -54 -1 -91 -28z"/>
<path d="M6462 7053 c-23 -9 -42 -61 -42 -115 0 -90 50 -168 108 -168 10 0 37
-20 61 -44 44 -45 81 -64 81 -42 0 46 -83 236 -144 329 -30 46 -38 51 -64 40z"/>
<path d="M3992 7031 c-20 -15 -21 -20 -11 -49 11 -34 23 -41 33 -19 3 6 3 1 0
-12 -8 -31 14 -19 26 15 7 18 5 32 -8 53 -17 28 -18 29 -40 12z m23 -10 c-3
-5 3 -17 12 -27 15 -15 16 -17 2 -12 -9 4 -22 1 -28 -5 -8 -8 -11 -8 -11 1 0
7 5 12 11 12 6 0 8 9 4 20 -4 12 -2 20 5 20 6 0 9 -4 5 -9z"/>
<path d="M3148 6983 c-3 -56 -4 -57 -45 -78 -24 -11 -43 -23 -43 -26 0 -4 20
-12 45 -19 57 -16 63 -24 67 -90 l3 -55 35 52 35 53 70 -6 70 -5 -47 41 -47
41 20 55 c12 31 19 58 16 60 -3 3 -19 -2 -36 -10 -41 -22 -47 -21 -91 14 -21
17 -40 30 -43 30 -3 0 -7 -26 -9 -57z"/>
<path d="M6616 7007 c3 -10 9 -15 12 -12 3 3 0 11 -7 18 -10 9 -11 8 -5 -6z"/>
<path d="M6251 6974 c0 -11 3 -14 6 -6 3 7 2 16 -1 19 -3 4 -6 -2 -5 -13z"/>
<path d="M4028 6926 c-19 -14 -26 -42 -8 -31 13 8 13 -1 -1 -26 -5 -11 -22
-24 -36 -30 -21 -8 -31 -4 -63 21 -21 16 -43 30 -49 30 -7 0 -11 -22 -11 -56
l0 -55 -47 -21 c-52 -23 -54 -19 29 -52 37 -14 37 -15 40 -78 l3 -63 39 58
c26 38 44 56 55 53 76 -21 122 -16 101 9 -7 8 -9 24 -5 37 5 20 4 20 -5 6 -10
-17 -13 -17 -40 -3 -17 9 -30 19 -30 23 0 4 11 25 25 47 26 42 32 75 14 75 -5
0 -7 5 -3 12 7 11 16 59 11 58 -1 0 -10 -7 -19 -14z m-32 -222 c-4 -9 -9 -15
-11 -12 -3 3 -3 13 1 22 4 9 9 15 11 12 3 -3 3 -13 -1 -22z"/>
<path d="M4184 6931 c4 -5 0 -12 -6 -15 -10 -3 -8 -9 5 -19 15 -13 16 -15 2
-21 -8 -3 -15 -10 -15 -16 0 -6 13 -4 31 5 17 9 34 13 37 9 4 -4 1 -9 -6 -11
-6 -3 -10 -9 -7 -13 6 -10 -34 -35 -42 -27 -2 3 5 8 16 12 12 3 19 11 16 16
-4 5 -13 5 -24 -1 -10 -5 -21 -6 -25 -3 -3 3 -6 -1 -6 -10 0 -8 7 -22 15 -30
8 -9 11 -17 6 -19 -5 -2 -7 -42 -4 -91 5 -76 8 -87 22 -81 9 3 21 7 28 7 14 0
27 27 17 36 -4 3 -9 0 -11 -7 -3 -6 -9 -9 -15 -6 -6 4 -14 0 -19 -7 -7 -11 -9
-11 -9 -1 0 7 12 17 28 23 15 5 33 18 39 28 10 16 9 19 -11 19 -15 0 -23 -6
-22 -16 0 -9 -7 -18 -16 -20 -10 -2 -18 2 -18 8 0 7 7 9 16 6 12 -4 15 -2 11
9 -4 8 -2 17 3 20 6 4 10 12 10 18 -1 7 -10 1 -22 -13 -12 -14 -19 -18 -15 -9
3 9 0 23 -6 30 -10 11 -9 11 5 0 16 -12 19 -10 27 10 10 28 4 40 -10 19 -9
-13 -10 -13 -7 -1 3 8 16 18 31 22 18 5 25 4 21 -3 -4 -7 -2 -8 4 -4 20 12 15
39 -5 31 -10 -4 -27 -9 -38 -11 -11 -2 -8 1 6 6 35 14 41 41 19 78 -10 17 -16
34 -12 38 4 4 2 4 -5 0 -6 -3 -14 -2 -18 4 -3 5 -11 10 -16 10 -6 0 -8 -4 -5
-9z"/>
<path d="M4150 6902 c0 -12 19 -26 26 -19 2 2 -2 10 -11 17 -9 8 -15 8 -15 2z"/>
<path d="M6130 6859 c0 -5 8 -9 18 -10 10 0 12 -3 5 -6 -19 -7 -16 -37 6 -64
18 -22 21 -23 36 -8 16 15 15 16 -12 13 -15 -2 -21 -1 -13 2 29 13 35 44 9 44
-6 0 -8 -4 -4 -9 6 -10 -13 -26 -21 -18 -3 3 3 14 14 25 19 19 18 19 -10 30
-16 6 -28 6 -28 1z"/>
<path d="M6691 6774 c0 -11 3 -14 6 -6 3 7 2 16 -1 19 -3 4 -6 -2 -5 -13z"/>
<path d="M4236 6765 c-7 -18 3 -45 16 -45 6 0 7 7 4 16 -4 12 -2 15 9 10 22
-8 18 11 -4 23 -14 8 -20 7 -25 -4z"/>
<path d="M6480 6756 c0 -1 11 -32 25 -70 29 -79 46 -174 34 -182 -5 -3 -9 -10
-9 -15 0 -6 5 -7 12 -3 15 10 4 -182 -12 -201 -6 -8 -9 -23 -5 -35 9 -28 -26
-62 -83 -80 -23 -7 -41 -14 -40 -16 2 -1 50 3 108 9 l106 11 27 70 c49 127 82
287 57 271 -6 -4 -10 8 -10 30 0 20 -4 45 -10 55 -19 36 -142 145 -171 151
-16 4 -29 6 -29 5z m107 -508 c-3 -8 -6 -5 -6 6 -1 11 2 17 5 13 3 -3 4 -12 1
-19z"/>
<path d="M6702 6725 c0 -16 2 -22 5 -12 2 9 2 23 0 30 -3 6 -5 -1 -5 -18z"/>
<path d="M3470 6683 l0 -59 -47 -23 -48 -24 35 -15 c19 -8 45 -18 58 -23 19
-8 22 -16 22 -71 1 -52 3 -60 13 -46 7 10 24 35 39 56 l27 38 58 -7 c32 -3 61
-3 66 0 4 4 -13 22 -38 41 -25 19 -45 34 -45 34 0 1 9 25 20 54 27 72 26 75
-21 52 l-40 -21 -50 36 -49 37 0 -59z"/>
<path d="M6156 6722 c-3 -5 -1 -24 5 -41 9 -25 14 -29 25 -20 17 14 19 64 3
53 -6 -3 -15 -1 -19 6 -5 7 -10 8 -14 2z m34 -26 c0 -3 -4 -8 -10 -11 -5 -3
-10 -1 -10 4 0 6 5 11 10 11 6 0 10 -2 10 -4z"/>
<path d="M6355 6710 c-3 -5 -2 -10 4 -10 5 0 13 5 16 10 3 6 2 10 -4 10 -5 0
-13 -4 -16 -10z"/>
<path d="M6327 6682 c1 -8 3 -18 3 -23 0 -5 5 -9 10 -9 6 0 10 9 10 21 0 11
-4 18 -9 15 -5 -4 -11 -3 -14 1 -2 5 -2 2 0 -5z"/>
<path d="M6360 6670 c0 -11 6 -20 14 -20 21 0 31 21 15 31 -22 14 -29 11 -29
-11z"/>
<path d="M6713 6600 c0 -36 2 -50 4 -32 2 17 2 47 0 65 -2 17 -4 3 -4 -33z"/>
<path d="M6400 6641 c-8 -6 -18 -7 -24 -4 -5 4 -7 -1 -3 -11 4 -10 7 -21 7
-24 0 -4 5 0 10 8 6 10 10 11 10 3 0 -7 4 -13 9 -13 5 0 8 11 7 25 0 14 -1 25
-1 25 0 0 -7 -4 -15 -9z"/>
<path d="M6344 6624 c3 -9 6 -18 6 -20 0 -2 4 -4 9 -4 5 0 7 9 4 20 -3 11 -10
20 -15 20 -6 0 -7 -7 -4 -16z"/>
<path d="M4187 6603 c-18 -5 -18 -5 0 -19 24 -18 28 -17 30 6 2 21 1 21 -30
13z"/>
<path d="M6364 6578 c-3 -4 -1 -8 4 -8 6 0 9 -6 9 -12 -2 -24 24 -98 34 -98 6
0 7 4 4 10 -3 5 0 20 6 32 12 22 11 22 -6 8 -13 -10 -16 -11 -11 -2 5 8 2 18
-8 25 -12 9 -13 16 -5 27 9 13 10 13 6 -2 -3 -9 1 -19 9 -22 24 -9 27 -7 21
14 -3 11 -1 20 4 20 5 0 9 4 9 9 0 11 -70 10 -76 -1z"/>
<path d="M4162 6550 c-10 -27 -9 -29 8 -18 14 9 16 14 7 20 -9 6 -9 8 1 8 6 0
12 5 12 10 0 21 -19 9 -28 -20z"/>
<path d="M6061 6520 c-20 -56 -24 -60 -54 -61 -18 -1 -45 -4 -61 -8 l-28 -6
48 -35 c26 -19 52 -38 58 -42 6 -4 1 -30 -13 -68 -13 -34 -20 -64 -17 -67 3
-3 31 13 61 36 l56 42 70 -27 c38 -15 72 -25 75 -22 3 4 -11 29 -32 57 l-36
52 46 59 c26 33 44 61 39 61 -4 1 -15 2 -23 3 -8 0 -14 6 -13 11 1 6 -7 11
-18 11 -10 0 -19 -4 -19 -8 0 -4 6 -8 13 -8 18 0 -15 -20 -34 -20 -9 0 -30 23
-47 50 -17 28 -35 50 -40 50 -5 0 -19 -27 -31 -60z"/>
<path d="M6330 6556 c0 -8 4 -17 9 -20 5 -4 7 3 4 14 -6 23 -13 26 -13 6z"/>
<path d="M6261 6544 c0 -11 3 -14 6 -6 3 7 2 16 -1 19 -3 4 -6 -2 -5 -13z"/>
<path d="M6346 6505 c-4 -10 -2 -21 5 -25 8 -6 8 -9 0 -14 -13 -9 -15 -26 -2
-26 15 0 22 35 13 60 -8 21 -9 22 -16 5z"/>
<path d="M2558 6453 c7 -3 16 -2 19 1 4 3 -2 6 -13 5 -11 0 -14 -3 -6 -6z"/>
<path d="M6370 6432 c0 -6 -7 -9 -15 -6 -11 5 -15 -2 -16 -27 0 -19 -2 -42 -4
-51 -2 -10 1 -20 6 -24 5 -3 9 1 9 8 0 9 3 9 10 -2 8 -13 10 -12 10 3 0 9 -7
17 -16 17 -14 0 -14 1 0 16 18 17 32 62 22 71 -3 4 -6 1 -6 -5z m-13 -44 c-3
-8 -6 -5 -6 6 -1 11 2 17 5 13 3 -3 4 -12 1 -19z"/>
<path d="M6412 6420 c0 -14 2 -19 5 -12 2 6 2 18 0 25 -3 6 -5 1 -5 -13z"/>
<path d="M2496 6385 c-44 -9 -82 -18 -85 -21 -3 -4 5 -14 19 -23 13 -9 49 -34
78 -57 l54 -40 28 28 c19 18 39 28 59 28 17 0 60 11 97 25 39 15 88 25 118 25
28 0 57 4 64 9 49 30 -298 51 -432 26z"/>
<path d="M2280 6370 c-9 -6 -10 -10 -3 -10 6 0 15 5 18 10 8 12 4 12 -15 0z"/>
<path d="M4685 6370 c-22 -6 -9 -8 45 -8 51 0 67 3 50 8 -31 10 -56 10 -95 0z"/>
<path d="M4588 6353 c6 -2 18 -2 25 0 6 3 1 5 -13 5 -14 0 -19 -2 -12 -5z"/>
<path d="M2275 6317 c-44 -19 -107 -51 -140 -72 -33 -22 -68 -40 -78 -41 -36
-3 -148 -153 -206 -275 -37 -77 -61 -154 -90 -282 -20 -86 -13 -203 18 -327
71 -286 224 -489 474 -630 31 -17 57 -34 57 -36 0 -2 -11 -32 -25 -65 -13 -34
-32 -98 -40 -143 -9 -44 -21 -97 -26 -117 -15 -59 -10 -126 16 -249 30 -143
54 -213 105 -307 104 -193 273 -349 471 -435 94 -40 153 -57 301 -83 103 -19
128 -17 334 31 267 61 531 279 646 533 63 137 103 300 80 323 -7 7 -12 35 -12
63 0 30 -6 60 -16 73 l-16 23 -32 -36 c-26 -28 -40 -35 -69 -35 -20 0 -39 -5
-43 -12 -4 -7 -3 -8 4 -4 8 5 11 -6 9 -36 -2 -24 1 -51 7 -60 8 -13 7 -24 -2
-39 -8 -12 -9 -18 -3 -14 18 11 13 -66 -6 -87 -15 -17 -15 -18 2 -18 12 0 15
-5 10 -17 -4 -10 -9 -27 -11 -38 -12 -62 -17 -75 -25 -69 -5 3 -9 0 -9 -7 0
-7 -3 -10 -6 -6 -7 7 -44 -24 -44 -38 0 -5 5 -3 10 5 8 13 10 13 10 -2 0 -9 6
-19 13 -21 6 -3 2 -6 -10 -6 -13 -1 -23 -5 -23 -9 0 -5 -11 -22 -25 -38 -14
-16 -23 -34 -20 -41 2 -7 0 -15 -5 -18 -6 -4 -10 -11 -10 -16 0 -6 15 0 33 12
17 12 26 16 20 9 -7 -8 -14 -25 -14 -39 -1 -17 -3 -20 -6 -8 -2 9 -9 17 -15
17 -6 0 -8 -3 -5 -7 4 -3 2 -12 -4 -20 -9 -10 -8 -13 4 -13 8 0 23 -3 32 -6
11 -5 18 0 22 15 3 11 9 21 15 21 12 0 -6 -31 -31 -52 -11 -10 -23 -13 -26 -8
-3 4 1 11 7 13 7 3 2 6 -11 6 -17 1 -22 -3 -17 -14 4 -10 -1 -15 -16 -15 -12
0 -18 -3 -15 -6 7 -8 -31 -44 -45 -44 -6 0 7 16 27 36 20 19 35 37 32 40 -6 7
-37 -7 -37 -16 0 -5 -15 -4 -32 1 -41 11 -38 12 -38 -7 0 -11 -6 -15 -20 -11
-11 3 -17 1 -14 -4 3 -5 -2 -12 -10 -15 -8 -3 -18 -14 -21 -25 -4 -10 -9 -18
-13 -18 -4 1 -18 1 -32 0 -18 -1 -21 -4 -11 -10 11 -7 9 -10 -8 -16 -11 -3
-25 -4 -31 0 -5 3 -7 0 -4 -9 4 -11 0 -13 -15 -9 -12 3 -21 1 -21 -4 0 -5 -6
-10 -12 -11 -51 -7 -62 -10 -65 -19 -2 -6 9 -9 29 -7 23 3 29 1 18 -6 -8 -5
-12 -12 -9 -15 8 -8 39 5 39 17 0 5 5 6 10 3 6 -3 10 4 11 17 0 13 3 18 6 11
3 -9 11 -7 26 7 12 12 28 18 39 14 10 -3 18 -1 18 5 0 6 9 20 20 31 21 21 35
27 25 10 -3 -5 -1 -10 5 -10 7 0 10 6 7 14 -6 16 19 43 30 32 3 -3 1 -6 -5 -6
-7 0 -12 -11 -12 -25 0 -20 -5 -25 -25 -25 -14 0 -29 -8 -35 -21 -7 -12 -19
-19 -30 -17 -12 2 -34 -13 -60 -42 -23 -25 -38 -39 -34 -31 5 11 3 13 -10 8
-10 -4 -21 -7 -26 -7 -14 0 -21 -33 -8 -42 9 -5 8 -8 -6 -8 -14 0 -17 5 -12
24 4 18 1 25 -14 29 -13 3 -18 10 -14 21 3 9 1 16 -5 16 -6 0 -11 -5 -11 -11
0 -6 -9 -8 -21 -4 -13 5 -19 3 -15 -3 3 -5 0 -10 -7 -9 -65 2 -99 -4 -94 -18
9 -21 -14 -31 -25 -11 -13 23 -54 20 -73 -6 l-16 -23 3 25 c3 23 -1 25 -37 28
-68 4 -130 20 -192 48 -32 15 -60 30 -63 34 -3 4 -23 17 -46 28 -22 11 -60 37
-84 57 -48 40 -54 40 70 9 64 -16 100 -18 100 -4 0 6 -6 10 -12 10 -26 0 -149
103 -194 163 -26 34 -62 93 -80 131 -34 70 -62 171 -51 182 3 3 21 1 41 -6 34
-11 35 -13 38 -68 l3 -57 30 48 30 49 63 -5 c34 -3 62 -1 62 4 0 5 -18 21 -40
35 -29 19 -39 32 -34 43 15 36 16 52 4 66 -9 11 -17 12 -31 4 -16 -8 -27 -4
-57 21 -20 16 -40 30 -44 30 -5 0 -8 -22 -8 -50 0 -45 -3 -51 -31 -65 -17 -9
-33 -15 -35 -12 -2 2 -5 34 -5 70 l-1 67 -33 0 c-24 0 -55 14 -102 46 -82 56
-85 59 -54 49 14 -4 48 -23 77 -41 31 -20 66 -34 84 -34 27 0 30 3 30 33 0 41
27 168 38 179 4 4 30 -1 57 -11 l50 -19 -3 -51 c-2 -28 0 -51 5 -51 4 0 21 20
38 45 l29 44 66 -5 65 -6 -43 39 -43 38 15 45 c21 61 21 61 -21 44 -35 -15
-37 -15 -79 14 -23 17 -45 28 -48 25 -3 -4 -6 -28 -6 -54 0 -44 -2 -48 -36
-64 -20 -9 -38 -14 -41 -12 -3 3 8 32 24 63 50 102 150 155 298 158 89 1 181
-12 198 -28 6 -7 33 -21 60 -31 l47 -18 0 -56 c1 -54 1 -55 18 -35 9 11 24 31
33 44 15 23 18 24 45 10 16 -8 68 -54 117 -102 48 -48 82 -78 76 -67 -15 29
-4 35 26 15 21 -14 25 -24 25 -62 0 -41 2 -45 20 -39 11 4 19 3 18 -2 -2 -4 2
-8 7 -8 6 0 9 3 7 8 -1 4 2 7 8 7 5 0 10 16 10 35 0 24 5 35 15 35 17 0 21 35
5 45 -5 3 -10 20 -10 36 0 26 3 29 23 24 18 -5 26 -1 35 20 13 27 16 55 7 55
-3 0 -21 -6 -40 -14 -35 -15 -47 -12 -39 9 3 7 0 15 -8 18 -8 2 -7 3 2 2 8 -2
23 -6 33 -10 10 -4 17 -3 17 5 0 6 -4 9 -9 5 -5 -3 -12 -1 -15 4 -4 5 2 12 13
16 16 5 36 43 27 52 -2 2 -28 -5 -57 -16 -37 -14 -48 -16 -34 -5 32 24 98 41
103 26 7 -23 19 -12 14 13 -2 14 -1 25 2 25 16 0 46 -22 46 -33 0 -7 -4 -6
-10 3 -5 8 -10 11 -10 5 0 -5 -5 -3 -10 5 -6 9 -10 10 -10 3 0 -6 5 -15 10
-18 6 -4 7 -11 4 -17 -5 -7 2 -9 19 -4 21 5 25 3 21 -9 -3 -8 -10 -12 -15 -9
-5 3 -9 0 -9 -5 0 -10 17 -15 48 -14 7 1 11 -5 8 -13 -3 -8 1 -14 8 -14 13 0
49 -51 88 -125 27 -51 59 -156 51 -168 -4 -6 13 1 38 16 24 15 60 35 79 44 19
10 37 19 39 20 8 5 -43 141 -82 218 -46 90 -110 179 -177 244 -51 51 -161 134
-167 127 -3 -2 3 -18 11 -35 24 -46 20 -94 -10 -130 -14 -17 -32 -31 -40 -31
-8 0 -14 -4 -14 -9 0 -5 -36 -8 -80 -7 -51 1 -80 -3 -80 -10 0 -5 -9 -20 -20
-32 l-21 -22 25 0 c13 0 33 -3 43 -7 17 -6 16 -4 -2 18 -17 20 -18 22 -1 9 16
-13 20 -12 30 2 11 16 14 15 29 -3 14 -16 14 -19 2 -19 -8 0 -15 5 -15 11 0 5
-5 7 -12 3 -8 -5 -6 -11 7 -20 15 -11 23 -11 46 2 16 8 29 10 29 5 0 -10 -30
-25 -43 -22 -5 1 -6 -8 -2 -19 4 -14 -1 -27 -17 -42 -13 -13 -23 -30 -21 -38
4 -20 -33 -44 -43 -28 -4 6 -3 8 3 5 6 -4 17 0 24 9 11 13 9 14 -13 9 -15 -4
-29 -2 -32 4 -4 6 -1 9 7 6 7 -3 26 6 43 20 l29 25 -32 0 c-23 0 -33 5 -38 21
-4 12 -12 18 -21 15 -8 -3 -13 0 -11 7 1 7 -5 10 -13 9 -8 -2 -12 0 -8 4 4 4
3 13 -3 20 -7 9 -6 21 6 43 9 18 11 31 5 31 -5 0 -10 -4 -10 -9 0 -5 -9 -7
-20 -4 -11 3 -20 8 -20 12 0 4 -16 15 -36 24 -24 12 -33 13 -29 5 4 -7 1 -6
-7 3 -7 8 -40 34 -73 56 -73 50 -99 77 -120 126 -23 55 -3 95 68 136 30 17 63
31 73 32 15 0 14 2 -6 11 -36 15 -211 3 -305 -22 -113 -29 -303 -125 -402
-204 -45 -36 -110 -99 -145 -140 -35 -41 -65 -72 -67 -70 -11 10 117 179 181
239 112 106 214 168 368 222 52 18 84 31 70 29 -16 -4 -37 3 -62 21 -21 14
-38 26 -38 27 0 0 9 25 20 54 11 28 18 52 16 52 -2 0 -20 -7 -41 -16 -37 -15
-38 -15 -76 15 -21 17 -40 31 -43 31 -3 0 -6 -24 -6 -53 l0 -53 -46 -19 -47
-19 44 -16 c63 -21 69 -27 69 -64 0 -29 -7 -37 -90 -90 -99 -63 -206 -165
-265 -251 -32 -45 -42 -54 -59 -49 -31 10 -40 10 -46 -1 -9 -17 -51 -55 -60
-55 -17 0 -11 14 22 49 31 33 31 35 13 45 -49 27 -195 187 -195 213 0 7 31 -4
76 -28 42 -22 79 -38 81 -35 3 3 -15 30 -40 60 -99 122 -142 259 -134 431 6
130 23 198 82 322 l43 92 30 -9 c17 -4 43 -14 59 -22 26 -12 28 -18 26 -62 -3
-54 6 -56 39 -6 22 33 27 35 93 40 l69 5 -42 29 c-47 32 -48 33 -27 83 25 58
21 66 -23 44 l-37 -19 -30 24 -29 23 29 13 c17 7 69 12 117 12 l87 0 -19 31
c-11 18 -18 34 -15 37 2 2 11 35 19 73 l14 68 -31 32 c-34 35 -130 95 -150 95
-7 0 -48 -15 -92 -33z m5 -388 c0 -25 -6 -32 -36 -45 -20 -8 -38 -13 -40 -11
-4 4 64 87 72 87 2 0 4 -14 4 -31z m-493 -521 c-3 -7 -5 -2 -5 12 0 14 2 19 5
13 2 -7 2 -19 0 -25z m13 -28 c0 -5 -4 -10 -10 -10 -5 0 -10 5 -10 10 0 6 5
10 10 10 6 0 10 -4 10 -10z m3 -35 c4 -8 2 -17 -3 -20 -6 -4 -10 3 -10 14 0
25 6 27 13 6z m27 -69 c0 -3 -4 -8 -10 -11 -5 -3 -10 -1 -10 4 0 6 5 11 10 11
6 0 10 -2 10 -4z m15 -70 c0 -13 -3 -22 -7 -19 -5 2 -8 13 -8 24 0 10 3 19 8
19 4 0 7 -11 7 -24z m1015 -41 c-35 -20 -57 -20 -40 0 7 8 24 15 39 15 l26 -1
-25 -14z m-973 -66 c10 -25 9 -29 -2 -19 -14 12 -27 50 -16 50 4 0 12 -14 18
-31z m144 -116 c24 -32 50 -62 57 -66 7 -4 29 -26 50 -49 20 -22 54 -49 74
-59 37 -19 57 -39 39 -39 -5 0 -16 7 -25 15 -8 8 -18 15 -23 15 -31 0 -223
199 -223 232 0 15 7 8 51 -49z m-86 36 c11 -17 -1 -21 -15 -4 -8 9 -8 15 -2
15 6 0 14 -5 17 -11z m22 -44 c0 -8 -4 -12 -9 -9 -5 3 -6 10 -3 15 9 13 12 11
12 -6z m1011 -51 c50 -35 8 -115 -53 -100 -50 13 -54 75 -6 101 33 18 32 18
59 -1z m331 -170 c14 -12 -19 -1 -35 12 -18 14 -18 14 6 3 14 -6 27 -13 29
-15z m381 -14 c-6 -11 -15 -20 -20 -20 -5 0 -6 -7 -3 -17 4 -10 2 -14 -4 -10
-6 4 -14 1 -16 -5 -4 -9 -6 -9 -6 -1 -1 11 46 73 55 73 3 0 0 -9 -6 -20z m41
-16 c12 -15 11 -16 -11 -9 -22 7 -24 6 -11 -9 18 -21 7 -32 -39 -41 -26 -4
-31 -3 -20 4 8 6 25 11 38 11 12 0 22 5 22 10 0 6 -7 10 -15 10 -13 0 -13 3
-3 20 15 24 22 25 39 4z m-334 -16 c-3 -8 -6 -5 -6 6 -1 11 2 17 5 13 3 -3 4
-12 1 -19z m193 2 c0 -5 -2 -10 -4 -10 -3 0 -8 5 -11 10 -3 6 -1 10 4 10 6 0
11 -4 11 -10z m35 -10 c3 -5 -1 -10 -10 -10 -9 0 -13 5 -10 10 3 6 8 10 10 10
2 0 7 -4 10 -10z m-205 -26 c0 -2 -9 -4 -20 -4 -11 0 -20 4 -20 9 0 5 9 7 20
4 11 -3 20 -7 20 -9z m60 -58 c0 -2 -7 -6 -15 -10 -8 -3 -15 -1 -15 4 0 6 7
10 15 10 8 0 15 -2 15 -4z m185 -6 c-3 -5 -11 -10 -16 -10 -6 0 -7 5 -4 10 3
6 11 10 16 10 6 0 7 -4 4 -10z m-35 -10 c0 -5 -5 -10 -11 -10 -5 0 -7 5 -4 10
3 6 8 10 11 10 2 0 4 -4 4 -10z m-132 -20 c8 0 13 -3 9 -6 -10 -10 -48 7 -40
19 5 8 8 8 11 -1 2 -7 11 -12 20 -12z m107 0 c3 -6 -1 -7 -9 -4 -18 7 -21 14
-7 14 6 0 13 -4 16 -10z m-1282 -105 c5 -15 1 -13 -18 8 -14 15 -25 38 -25 50
0 20 2 19 18 -8 10 -16 21 -39 25 -50z m1230 21 c4 -10 1 -13 -8 -9 -8 3 -12
9 -9 14 7 12 11 11 17 -5z m-48 -26 c3 -5 1 -10 -4 -10 -6 0 -11 5 -11 10 0 6
2 10 4 10 3 0 8 -4 11 -10z m-1183 -140 c6 0 9 -2 6 -5 -19 -20 -79 59 -78
102 1 10 14 -8 31 -39 16 -32 34 -58 41 -58z m-12 -435 c0 -5 -5 -3 -10 5 -5
8 -10 20 -10 25 0 6 5 3 10 -5 5 -8 10 -19 10 -25z m25 -60 c9 -40 -3 -27 -15
15 -5 19 -6 29 -1 24 5 -5 12 -22 16 -39z m1709 -20 c-4 -8 -10 -15 -15 -15
-4 0 -6 7 -3 15 4 8 10 15 15 15 4 0 6 -7 3 -15z m-1665 -30 c11 -19 18 -42
15 -50 -4 -9 0 -15 9 -15 9 0 18 -4 21 -9 4 -5 -3 -7 -14 -4 -25 7 -45 40 -42
68 2 15 1 17 -7 6 -7 -10 -9 -7 -8 12 1 15 3 27 4 27 0 0 10 -16 22 -35z
m1594 8 c-4 -10 -9 -11 -19 -2 -18 15 -18 15 5 15 11 0 17 -5 14 -13z m30 -38
c-3 -9 -8 -14 -10 -11 -3 3 -2 9 2 15 9 16 15 13 8 -4z m-58 -15 c3 -5 1 -10
-4 -10 -6 0 -11 5 -11 10 0 6 2 10 4 10 3 0 8 -4 11 -10z m-28 -28 c-9 -2 -15
-8 -11 -13 3 -5 10 -6 16 -3 7 4 8 2 4 -4 -7 -11 -36 -6 -36 7 0 14 23 30 34
23 7 -4 4 -8 -7 -10z m86 -11 c-4 -16 -8 -17 -18 -8 -9 9 -10 14 -1 19 19 13
24 9 19 -11z m-26 -26 c0 -8 -4 -12 -9 -9 -5 3 -6 10 -3 15 9 13 12 11 12 -6z
m-1534 -12 c-5 -12 -2 -15 8 -11 10 4 15 -1 15 -13 0 -26 -11 -24 -30 5 -15
23 -14 26 11 35 1 1 -1 -7 -4 -16z m1493 -28 c-17 -6 -33 -9 -36 -7 -3 3 1 7
8 9 7 3 18 11 25 17 8 9 15 10 23 2 8 -8 3 -14 -20 -21z m-1449 -37 c-3 -8 -6
-5 -6 6 -1 11 2 17 5 13 3 -3 4 -12 1 -19z m51 -29 c11 0 13 -2 4 -6 -22 -9
-42 5 -35 24 7 17 8 17 11 1 2 -10 11 -18 20 -19z m30 -33 c-13 -14 -28 -12
-28 5 0 5 9 9 20 9 17 0 19 -2 8 -14z m1206 -2 c5 -14 4 -15 -9 -4 -8 7 -15 9
-15 4 0 -5 -3 -18 -6 -29 -4 -16 0 -20 23 -22 15 -1 35 4 43 10 13 11 13 10 1
-6 -10 -12 -22 -16 -38 -12 -17 4 -23 1 -24 -12 0 -12 -4 -10 -10 8 -6 17 -6
35 0 52 12 31 26 35 35 11z m96 2 c0 -11 -19 -15 -25 -6 -3 5 1 10 9 10 9 0
16 -2 16 -4z m-1254 -54 c-6 -5 -36 23 -36 34 0 4 9 -1 20 -11 11 -10 18 -20
16 -23z m94 8 c19 -17 30 -30 25 -30 -13 0 -75 44 -75 53 0 13 15 6 50 -23z
m-59 -37 c13 -17 13 -17 -6 -3 -11 8 -22 16 -24 17 -2 2 0 3 6 3 6 0 17 -8 24
-17z m1074 8 c-3 -5 -1 -12 5 -16 6 -4 7 -11 3 -18 -4 -7 -9 -4 -13 9 -7 18
-4 34 6 34 3 0 3 -4 -1 -9z m-925 -32 c0 -5 -11 -3 -25 3 -14 6 -25 15 -25 19
0 5 11 3 25 -3 14 -6 25 -15 25 -19z m904 15 c3 -8 2 -12 -4 -9 -6 3 -10 10
-10 16 0 14 7 11 14 -7z m-34 -22 c0 -5 -7 -9 -15 -9 -8 0 -12 4 -9 9 3 4 9 8
15 8 5 0 9 -4 9 -8z m-50 -12 c-8 -5 -19 -10 -25 -10 -5 0 -3 5 5 10 8 5 20
10 25 10 6 0 3 -5 -5 -10z m-735 -20 c3 -6 -1 -7 -9 -4 -18 7 -21 14 -7 14 6
0 13 -4 16 -10z m785 0 c-8 -5 -32 -10 -52 -10 -20 0 -40 -5 -43 -10 -4 -7 3
-9 22 -5 l28 6 -30 -14 c-35 -17 -39 -15 -30 12 6 19 17 23 90 28 22 2 26 0
15 -7z m-743 -16 c-3 -3 -12 -4 -19 -1 -8 3 -5 6 6 6 11 1 17 -2 13 -5z m28
-4 c3 -5 1 -10 -4 -10 -6 0 -11 5 -11 10 0 6 2 10 4 10 3 0 8 -4 11 -10z m490
-60 c-3 -5 -12 -10 -18 -10 -7 0 -6 4 3 10 19 12 23 12 15 0z"/>
<path d="M2935 6340 c-11 -5 -42 -9 -70 -9 -27 -1 -83 -12 -123 -26 -41 -14
-84 -25 -97 -25 -14 0 -35 -14 -53 -34 -27 -31 -39 -66 -55 -162 -1 -6 7 -27
17 -46 16 -30 32 -41 88 -63 68 -27 68 -27 68 -66 0 -45 11 -50 30 -14 7 14
17 25 21 25 4 0 44 -34 89 -77 55 -52 78 -79 71 -86 -7 -7 -1 -16 18 -28 16
-10 41 -42 56 -73 15 -31 31 -56 36 -56 5 0 8 5 7 11 -6 26 20 18 31 -9 9 -22
18 -28 32 -25 10 3 19 10 19 15 0 5 -9 6 -21 3 l-21 -7 21 21 c24 24 27 37 9
43 -6 2 -12 12 -14 21 -1 9 1 15 4 13 4 -2 29 -6 56 -7 47 -3 50 -2 57 24 4
15 3 27 -2 27 -5 0 -9 -5 -9 -10 0 -6 -11 -3 -25 6 -14 9 -22 21 -19 26 4 6 1
14 -6 18 -9 6 -7 18 8 54 21 46 17 55 -18 36 -16 -8 -18 -8 -14 5 3 8 10 12
15 9 5 -3 9 0 9 6 0 7 -6 10 -14 7 -8 -3 -16 -2 -18 3 -2 5 -12 2 -23 -7 -19
-15 -19 -15 5 -9 24 7 24 6 -2 -9 -25 -14 -30 -14 -53 1 -14 9 -25 21 -25 26
0 5 -9 6 -20 3 -11 -4 -20 -2 -20 4 0 6 3 10 8 10 19 -3 33 2 27 11 -3 6 4 10
17 10 18 0 20 2 8 9 -8 6 -18 7 -22 5 -4 -3 -8 0 -8 5 0 6 -5 11 -11 11 -6 0
-8 -10 -5 -22 3 -13 3 -17 0 -10 -5 10 -9 9 -20 -5 -13 -17 -14 -17 -8 0 4 10
1 17 -6 17 -6 0 -8 5 -5 10 4 6 10 8 14 6 4 -3 7 3 6 13 0 10 -25 45 -53 77
-134 150 -122 250 32 276 43 7 62 14 54 19 -16 11 -47 10 -73 -1z m-263 -117
c39 -35 7 -98 -48 -91 -19 2 -34 13 -44 31 -14 27 -14 29 13 53 33 28 54 30
79 7z m273 -261 c-3 -3 -11 0 -18 7 -9 10 -8 11 6 5 10 -3 15 -9 12 -12z m132
-314 c-3 -8 -6 -5 -6 6 -1 11 2 17 5 13 3 -3 4 -12 1 -19z"/>
<path d="M4538 6343 c7 -3 16 -2 19 1 4 3 -2 6 -13 5 -11 0 -14 -3 -6 -6z"/>
<path d="M6334 6295 c-18 -14 -18 -14 4 -8 12 3 22 9 22 14 0 12 -3 11 -26 -6z"/>
<path d="M2129 6273 c-13 -16 -12 -17 4 -4 16 13 21 21 13 21 -2 0 -10 -8 -17
-17z"/>
<path d="M4500 6265 c-258 -64 -510 -270 -645 -527 -29 -55 -55 -94 -57 -87
-3 8 -10 -17 -17 -56 -6 -38 -17 -86 -22 -105 -21 -70 5 -283 51 -414 25 -72
25 -82 3 -65 -10 7 13 -15 50 -50 84 -79 146 -158 200 -258 23 -43 47 -79 52
-80 6 -1 42 -23 80 -49 70 -47 183 -104 207 -104 7 0 26 -7 42 -15 29 -15 29
-15 100 53 81 78 106 96 213 157 43 25 74 45 70 45 -16 0 -94 -44 -172 -97
-79 -54 -80 -55 -120 -43 -22 7 -58 22 -80 34 l-40 21 97 5 c53 3 99 8 103 11
3 4 -18 15 -47 24 -29 10 -75 29 -102 44 -40 22 -49 23 -54 11 -7 -20 -73 -82
-80 -76 -3 3 6 15 20 26 14 10 31 32 37 48 12 28 10 31 -55 93 -96 92 -154
191 -195 332 -26 91 -37 304 -20 382 23 101 99 174 227 217 59 20 88 23 209
23 127 -1 147 -4 215 -28 78 -29 189 -90 228 -127 40 -37 33 -17 -11 35 -43
51 -41 51 31 3 l42 -29 0 25 c0 18 -4 24 -15 20 -8 -4 -17 1 -21 10 -3 9 -10
13 -15 10 -5 -3 -9 0 -9 6 0 7 6 10 14 7 8 -3 17 -1 20 6 3 7 3 2 0 -10 -3
-13 -1 -23 5 -23 6 0 11 5 11 11 0 5 5 7 10 4 6 -3 10 -1 10 4 0 6 -4 11 -10
11 -5 0 -10 8 -10 18 0 14 2 15 10 2 5 -8 10 -10 10 -5 0 6 -4 17 -9 24 -8 12
-13 11 -30 -10 -11 -13 -20 -20 -21 -15 0 5 11 19 25 32 14 13 25 30 25 39 0
9 5 13 10 10 6 -3 10 3 10 13 0 18 -37 38 -49 26 -3 -3 5 -7 17 -11 l23 -6
-21 -14 c-11 -8 -17 -19 -14 -25 4 -7 2 -8 -4 -4 -7 4 -12 14 -12 22 0 8 5 12
10 9 17 -10 11 12 -7 26 -15 13 -16 10 -11 -32 5 -44 4 -45 -18 -41 -16 3 -24
0 -24 -9 0 -12 -2 -12 -9 -1 -4 8 -11 13 -15 13 -20 -3 -25 1 -19 15 4 11 8
12 13 4 5 -8 9 -7 14 5 3 9 4 20 1 24 -2 4 2 8 10 8 10 0 11 -5 4 -18 -14 -27
-11 -38 11 -32 22 6 27 23 8 23 -9 0 -9 3 1 9 8 5 11 16 8 24 -3 9 -1 18 6 21
9 3 8 8 -3 15 -8 6 -10 11 -5 12 6 0 1 4 -10 9 -18 8 -17 9 8 9 16 1 26 -3 22
-9 -3 -5 -1 -18 4 -27 10 -17 10 -17 11 0 0 17 1 17 16 3 20 -20 30 -21 14 -1
-16 19 -6 20 13 0 13 -12 15 -12 20 5 3 11 1 18 -4 14 -5 -3 -9 -1 -9 5 0 5 4
11 9 13 4 2 10 22 14 46 4 30 2 40 -6 35 -7 -4 -6 1 2 10 8 10 16 52 18 101
l5 83 -32 12 c-48 16 -52 14 -25 -15 37 -40 50 -88 32 -123 -11 -22 -12 -32
-3 -42 8 -9 8 -10 -1 -5 -7 4 -13 2 -13 -3 0 -6 -3 -10 -7 -9 -5 1 -26 -7 -48
-18 -29 -15 -63 -21 -125 -23 -47 -1 -101 -5 -120 -8 -19 -3 -32 -2 -27 3 4 4
-16 14 -45 21 -134 34 -228 104 -228 168 0 39 33 85 89 123 45 32 45 32 16 31
-17 0 -55 -7 -85 -14z m-122 -283 c29 -37 0 -92 -49 -92 -19 0 -34 8 -44 24
-15 22 -15 27 -1 54 22 43 65 49 94 14z m712 -47 c0 -5 -5 -3 -10 5 -8 12 -13
10 -37 -12 -23 -21 -31 -24 -47 -14 -14 8 -20 8 -23 -1 -2 -7 -11 -9 -18 -7
-11 5 -12 1 -2 -19 6 -14 15 -23 18 -21 4 2 5 -5 2 -16 -3 -11 -12 -20 -19
-20 -8 0 -14 -5 -14 -12 0 -6 -7 -3 -15 8 -8 10 -15 14 -15 7 0 -18 -37 -36
-45 -23 -4 6 -3 10 2 9 18 -3 33 1 33 10 0 5 -16 8 -35 6 -19 -2 -35 1 -35 6
0 5 4 9 10 9 5 0 7 7 4 15 -7 16 -44 21 -44 5 0 -5 7 -6 17 -3 11 4 14 3 9 -5
-11 -18 -24 -14 -37 11 -6 12 -8 19 -4 15 12 -11 35 11 28 28 -3 8 0 14 5 14
6 0 9 -9 7 -20 -2 -11 0 -20 6 -20 5 0 10 10 10 23 2 21 2 21 6 -2 4 -19 7
-21 14 -10 7 11 9 11 9 -3 0 -10 5 -18 11 -18 5 0 8 3 5 8 -2 4 2 15 9 25 12
16 13 16 19 1 4 -9 4 -19 1 -22 -3 -3 -5 0 -5 7 0 7 -5 9 -10 6 -6 -4 -8 -10
-5 -15 3 -5 -4 -14 -15 -20 -27 -14 -26 -30 3 -27 12 1 25 11 29 22 6 19 6 18
7 -2 1 -16 7 -23 21 -23 11 0 20 5 20 11 0 5 -5 7 -11 3 -8 -4 -9 1 -4 16 5
16 4 20 -5 15 -8 -5 -11 0 -8 16 2 13 9 23 16 21 7 -1 26 5 43 14 30 15 31 15
24 -7 -5 -14 -4 -19 4 -15 6 4 11 16 11 27 0 11 4 18 8 15 4 -2 14 -1 22 4 14
9 30 -4 30 -25z m-395 -15 l20 -9 -20 0 c-11 0 -27 4 -35 9 -13 9 -13 10 0 9
8 0 24 -4 35 -9z m393 -16 c2 -1 -4 -4 -13 -8 -9 -3 -13 -2 -10 4 3 6 1 10 -4
10 -6 0 -11 5 -11 11 0 8 6 7 18 -2 9 -7 18 -14 20 -15z m-325 -14 c3 -11 1
-18 -4 -14 -5 3 -9 12 -9 20 0 20 7 17 13 -6z m149 -102 c-7 -7 -12 -8 -12 -2
0 14 12 26 19 19 2 -3 -1 -11 -7 -17z m81 -63 c-7 -21 -13 -19 -13 6 0 11 4
18 10 14 5 -3 7 -12 3 -20z m-883 -1050 c0 -8 5 -14 11 -12 6 1 13 -4 15 -11
1 -7 0 -8 -3 -2 -2 5 -9 8 -13 5 -5 -3 -14 4 -20 15 -7 13 -7 20 0 20 5 0 10
-7 10 -15z m54 -39 c-3 -9 3 -17 15 -21 12 -3 21 -11 21 -16 0 -5 -11 -2 -25
7 -26 17 -30 26 -18 37 10 11 13 8 7 -7z m125 -41 c-17 -25 -33 -45 -35 -45
-3 0 -14 9 -25 19 -15 14 -17 21 -8 26 8 5 10 4 5 -3 -4 -7 -2 -12 3 -12 6 0
11 6 11 13 0 9 3 8 9 -2 7 -10 14 -6 32 18 35 48 42 37 8 -14z m142 -43 c21
-9 39 -20 39 -24 0 -10 -50 6 -95 31 -35 19 -36 21 -12 16 16 -3 46 -13 68
-23z m88 -31 c7 -5 9 -11 4 -14 -6 -4 -19 0 -29 8 -15 11 -16 14 -4 15 8 0 21
-4 29 -9z"/>
<path d="M4850 5869 c0 -5 5 -7 10 -4 6 3 10 8 10 11 0 2 -4 4 -10 4 -5 0 -10
-5 -10 -11z"/>
<path d="M2089 6243 c-13 -16 -12 -17 4 -4 9 7 17 15 17 17 0 8 -8 3 -21 -13z"/>
<path d="M6718 6163 c7 -3 16 -2 19 1 4 3 -2 6 -13 5 -11 0 -14 -3 -6 -6z"/>
<path d="M5140 6093 c0 -32 -3 -69 -6 -83 -3 -14 9 4 26 39 34 73 36 86 14 95
-30 12 -34 6 -34 -51z"/>
<path d="M5201 6098 c-5 -13 -19 -45 -30 -72 -12 -27 -19 -56 -17 -63 3 -8 2
-11 -4 -8 -5 3 -14 -14 -20 -37 -6 -24 -15 -59 -21 -78 -12 -48 -12 -50 11
-50 21 0 23 5 20 63 -2 43 15 49 58 18 15 -10 29 -19 32 -19 3 -1 13 -4 23 -8
10 -3 21 -4 24 -1 11 12 62 -34 116 -106 53 -70 122 -199 120 -224 0 -7 3 -13
8 -13 5 0 6 -7 3 -15 -4 -8 -1 -22 6 -30 6 -8 14 -43 17 -77 3 -35 10 -71 15
-82 6 -11 6 -16 0 -13 -5 4 -9 -15 -9 -46 0 -54 -16 -118 -39 -151 -7 -10 -10
-25 -7 -34 4 -9 2 -13 -4 -9 -5 3 -16 -6 -24 -21 -8 -15 -18 -30 -23 -34 -10
-6 -13 -17 -18 -53 -2 -14 2 -19 14 -17 9 1 19 -1 22 -6 3 -5 -8 -8 -24 -6
-22 3 -33 -2 -42 -19 -7 -12 -11 -26 -10 -30 1 -4 -6 -10 -15 -14 -10 -3 -26
-15 -36 -25 -15 -15 -33 -18 -116 -17 -54 1 -106 -3 -115 -8 -12 -6 11 -8 69
-5 101 5 245 -12 323 -39 31 -11 57 -17 59 -15 3 2 -12 9 -31 16 -20 6 -36 15
-36 19 0 4 13 25 30 47 16 23 49 78 74 124 l44 83 12 -44 c27 -105 40 -141 79
-218 23 -45 52 -97 66 -115 14 -18 23 -35 20 -38 -6 -6 205 -212 220 -214 6
-1 34 -16 61 -33 86 -53 180 -90 292 -117 96 -24 121 -26 242 -21 146 5 241
26 362 77 203 87 385 261 487 466 45 91 102 262 71 214 -7 -10 -10 19 -10 92
0 111 -16 208 -52 318 -21 66 -75 180 -101 214 -14 18 -16 16 -32 -39 -9 -33
-27 -80 -40 -105 -23 -45 -23 -45 -4 -85 18 -37 29 -67 50 -145 6 -19 12 -61
14 -93 2 -32 6 -61 9 -64 3 -4 0 -13 -7 -21 -9 -13 -9 -14 1 -8 9 5 12 -2 12
-28 0 -19 -4 -37 -8 -40 -5 -3 -7 -19 -4 -35 7 -49 -6 -99 -28 -106 -11 -4
-20 -11 -20 -17 0 -5 7 -8 15 -4 9 3 15 0 15 -10 0 -10 -6 -14 -14 -11 -10 4
-13 1 -10 -7 3 -8 1 -17 -5 -21 -6 -3 -11 -12 -11 -18 0 -7 4 -6 10 3 5 8 10
11 10 6 0 -17 -32 -45 -46 -39 -8 3 -14 0 -14 -7 0 -6 4 -9 9 -6 13 8 20 -29
9 -45 -8 -11 -9 -10 -4 4 4 13 0 17 -17 16 -12 0 -16 -3 -9 -6 19 -7 4 -23
-24 -23 -13 0 -24 -4 -24 -10 0 -5 7 -7 15 -4 21 8 19 2 -7 -20 -17 -15 -20
-15 -15 -3 3 9 2 19 -3 22 -6 4 -10 -5 -10 -18 0 -16 -8 -28 -25 -35 -14 -6
-25 -20 -26 -29 0 -11 -3 -13 -6 -5 -2 6 -12 12 -21 11 -11 0 -12 -2 -4 -6 17
-7 15 -30 -3 -37 -8 -3 -15 -10 -15 -16 0 -6 5 -8 12 -4 7 4 8 3 4 -4 -4 -7
-15 -8 -29 -3 -26 10 -50 3 -41 -11 4 -6 10 -5 16 3 8 11 9 11 6 1 -2 -8 -7
-12 -12 -10 -4 2 -14 -8 -22 -22 l-14 -25 4 28 c4 24 3 27 -9 17 -11 -9 -11
-17 -3 -36 11 -24 28 -33 28 -14 0 6 5 10 12 10 6 0 4 -7 -5 -18 -18 -20 -23
-37 -8 -28 4 3 5 -9 2 -26 -6 -29 -10 -32 -43 -33 -20 -1 -35 2 -32 6 2 4 13
6 24 4 21 -4 24 5 14 42 -4 13 -11 20 -17 16 -6 -3 -7 -1 -3 6 4 6 2 19 -5 27
-7 9 -15 11 -18 5 -4 -6 -27 -19 -51 -30 -25 -11 -38 -21 -30 -21 21 0 -2 -20
-30 -25 -13 -2 -29 0 -37 6 -9 8 -17 8 -25 1 -7 -5 -28 -13 -46 -17 -24 -5
-31 -10 -23 -18 7 -7 15 -6 28 4 16 13 17 12 5 -3 -14 -17 -36 -17 -104 -3
-18 4 -28 3 -25 -2 4 -5 0 -10 -8 -10 -8 0 -12 4 -9 9 3 4 -21 8 -53 8 -118 0
-303 67 -387 140 -84 72 -106 93 -102 97 3 3 33 -4 68 -15 128 -41 155 -38 82
11 -98 64 -205 233 -239 375 -21 88 -16 293 9 381 18 64 11 80 -54 120 -25 15
-82 62 -126 104 l-82 77 -12 -31 c-9 -21 -15 -26 -21 -18 -5 8 -9 0 -11 -22
-3 -34 -3 -33 -22 21 -62 183 -196 369 -344 478 -100 73 -110 78 -121 50z
m-31 -183 c0 -2 -10 -9 -22 -15 -22 -11 -22 -10 -4 4 21 17 26 19 26 11z m460
-805 c0 -5 -5 -10 -11 -10 -5 0 -7 5 -4 10 3 6 8 10 11 10 2 0 4 -4 4 -10z
m-29 -103 c-10 -9 -11 -8 -5 6 3 10 9 15 12 12 3 -3 0 -11 -7 -18z m-81 -9 c0
-4 -6 -8 -14 -8 -8 0 -17 4 -20 8 -2 4 4 8 15 8 10 0 19 -4 19 -8z m81 -35
c-8 -15 -10 -15 -11 -2 0 17 10 32 18 25 2 -3 -1 -13 -7 -23z m103 -45 c14
-49 12 -66 -3 -25 -9 24 -24 98 -16 82 3 -5 11 -31 19 -57z m-174 -65 c0 -25
-15 -12 -17 14 -1 19 1 22 8 12 5 -8 9 -20 9 -26z m-71 -6 c-2 -1 -13 -9 -24
-17 -19 -14 -19 -14 -6 3 7 9 18 17 24 17 6 0 8 -1 6 -3z m281 -13 c0 -8 -5
-12 -10 -9 -6 4 -8 11 -5 16 9 14 15 11 15 -7z m-220 -9 c0 -2 -6 -8 -13 -14
-10 -8 -14 -7 -14 2 0 8 6 14 14 14 7 0 13 -1 13 -2z m-103 -31 c-3 -3 -12 -4
-19 -1 -8 3 -5 6 6 6 11 1 17 -2 13 -5z m370 -69 c0 -8 -4 -12 -9 -9 -5 3 -6
10 -3 15 9 13 12 11 12 -6z m1613 -25 c0 -5 -2 -10 -4 -10 -3 0 -8 5 -11 10
-3 6 -1 10 4 10 6 0 11 -4 11 -10z m-1582 -35 c-3 -3 -9 2 -12 12 -6 14 -5 15
5 6 7 -7 10 -15 7 -18z m59 -59 c-3 -7 0 -20 6 -27 10 -11 9 -11 -5 0 -15 11
-15 41 -1 41 3 0 3 -6 0 -14z m1413 0 c0 -2 -11 -6 -25 -8 -13 -3 -22 -1 -19
3 5 9 44 13 44 5z m37 -38 c2 -18 0 -20 -7 -8 -12 18 -13 30 -2 30 4 0 9 -10
9 -22z m-122 2 c3 -6 -4 -10 -17 -10 -18 0 -20 2 -8 10 19 12 18 12 25 0z m17
-22 c-8 -8 -9 -4 -5 13 4 13 8 18 11 10 2 -7 -1 -18 -6 -23z m-1302 12 c0 -5
-5 -10 -11 -10 -5 0 -7 5 -4 10 3 6 8 10 11 10 2 0 4 -4 4 -10z m140 -65 c7
-8 9 -15 4 -15 -11 1 -53 37 -79 70 -17 20 -13 19 21 -8 22 -17 47 -38 54 -47z
m1240 67 c0 -5 -7 -9 -15 -9 -8 0 -12 4 -9 9 3 4 9 8 15 8 5 0 9 -4 9 -8z
m-45 -22 c-3 -5 -12 -10 -18 -10 -7 0 -6 4 3 10 19 12 23 12 15 0z m31 -25
c-9 -9 -16 -13 -16 -8 0 12 22 34 28 28 2 -2 -3 -11 -12 -20z m-66 5 c0 -5
-10 -15 -22 -21 l-23 -12 20 21 c23 24 25 25 25 12z m-50 -14 c0 -11 -19 -15
-25 -6 -3 5 1 10 9 10 9 0 16 -2 16 -4z m89 -20 c-2 -2 -18 -8 -36 -14 -24 -8
-31 -8 -27 1 2 7 18 13 36 14 17 1 29 1 27 -1z m-99 -31 c13 8 -2 -38 -17 -53
-7 -7 -13 -9 -13 -3 0 5 5 13 10 16 6 3 10 14 9 23 0 11 -3 12 -6 5 -2 -7 -8
-13 -13 -13 -4 0 -3 11 3 25 8 17 13 20 15 10 2 -8 7 -13 12 -10z m-1046 0
c11 -8 17 -17 14 -20 -3 -3 -16 3 -29 14 -27 23 -14 28 15 6z m1016 11 c0 -3
-4 -8 -10 -11 -5 -3 -10 -1 -10 4 0 6 5 11 10 11 6 0 10 -2 10 -4z m90 -10 c0
-2 -8 -10 -17 -17 -16 -13 -17 -12 -4 4 13 16 21 21 21 13z m-115 -36 c3 -6
-1 -7 -9 -4 -18 7 -21 14 -7 14 6 0 13 -4 16 -10z m-130 -19 c-8 -14 -25 -14
-25 0 0 5 5 7 10 4 6 -3 10 -1 10 6 0 7 3 10 6 6 3 -3 3 -10 -1 -16z m-755
-17 c0 -2 -9 0 -20 6 -11 6 -20 13 -20 16 0 2 9 0 20 -6 11 -6 20 -13 20 -16z
m875 8 c-3 -3 -11 0 -18 7 -9 10 -8 11 6 5 10 -3 15 -9 12 -12z m-828 -28 c-7
-7 -37 7 -37 17 0 6 9 5 21 -1 11 -7 19 -14 16 -16z m698 -14 c-9 -17 -13 -36
-9 -43 5 -9 4 -9 -7 1 -18 16 -39 15 -39 -2 0 -24 -18 -28 -30 -6 -6 11 -7 20
-3 19 26 -5 72 16 82 37 6 13 13 24 16 24 3 0 -2 -14 -10 -30z m45 10 c0 -5
-4 -10 -10 -10 -5 0 -10 5 -10 10 0 6 5 10 10 10 6 0 10 -4 10 -10z m-190 -10
c0 -5 -2 -10 -4 -10 -3 0 -8 5 -11 10 -3 6 -1 10 4 10 6 0 11 -4 11 -10z m3
-35 c21 6 21 6 2 -6 -11 -7 -23 -16 -26 -21 -3 -5 -6 6 -6 24 0 18 2 25 4 15
3 -13 11 -16 26 -12z m44 19 c-3 -3 -12 -4 -19 -1 -8 3 -5 6 6 6 11 1 17 -2
13 -5z m3 -56 c0 -11 -12 -10 -30 2 -12 7 -10 9 8 7 12 0 22 -5 22 -9z m-430
-18 c20 -6 21 -8 5 -8 -11 0 -29 3 -40 8 -25 11 1 11 35 0z m397 4 c-3 -3 -12
-4 -19 -1 -8 3 -5 6 6 6 11 1 17 -2 13 -5z m-40 -10 c-3 -3 -12 -4 -19 -1 -8
3 -5 6 6 6 11 1 17 -2 13 -5z m-300 -10 c-3 -3 -12 -4 -19 -1 -8 3 -5 6 6 6
11 1 17 -2 13 -5z m256 -1 c-7 -2 -21 -2 -30 0 -10 3 -4 5 12 5 17 0 24 -2 18
-5z m-140 -10 c-7 -2 -19 -2 -25 0 -7 3 -2 5 12 5 14 0 19 -2 13 -5z"/>
<path d="M6220 6095 c-14 -8 -20 -14 -15 -14 6 0 21 6 35 14 14 8 21 14 15 14
-5 0 -21 -6 -35 -14z"/>
<path d="M6970 6100 c8 -5 20 -10 25 -10 6 0 3 5 -5 10 -8 5 -19 10 -25 10 -5
0 -3 -5 5 -10z"/>
<path d="M6385 6075 c-122 -32 -165 -48 -262 -100 -94 -50 -181 -114 -252
-185 l-48 -50 14 -57 c34 -145 46 -175 81 -202 19 -14 49 -38 65 -52 l31 -26
40 81 c33 66 50 87 89 113 64 43 104 53 208 53 142 0 277 -44 392 -127 42 -31
47 -39 47 -75 0 -37 -3 -41 -40 -55 -22 -9 -40 -19 -40 -23 0 -3 21 -13 48
-21 l47 -15 3 -58 3 -58 35 46 c33 44 37 46 82 44 28 -1 57 -9 73 -20 29 -22
52 -16 67 17 10 21 9 23 -14 20 -14 -1 -31 -11 -39 -21 -13 -18 -14 -18 -9 3
4 12 19 26 35 32 16 5 29 17 29 25 0 21 -6 20 -30 -4 -23 -23 -43 -25 -59 -6
-9 11 -7 15 8 19 14 3 18 1 14 -9 -6 -16 -2 -17 21 -8 9 3 14 10 11 15 -3 4 4
13 15 19 15 8 19 17 14 32 -5 15 -3 19 7 13 11 -6 11 -5 2 5 -6 7 -9 19 -6 28
4 9 2 13 -4 9 -14 -9 -39 21 -27 31 5 4 25 21 44 37 19 17 28 22 21 12 -18
-23 -23 -67 -8 -67 7 0 6 -4 -3 -10 -12 -7 -12 -12 -2 -22 9 -9 12 -9 12 0 0
7 7 12 16 12 14 0 14 3 4 15 -7 8 -9 15 -4 15 4 0 3 5 -4 12 -20 20 -13 29 8
11 14 -13 16 -19 7 -25 -9 -6 -9 -8 0 -8 20 0 25 19 9 36 -9 8 -16 23 -15 32
0 14 2 13 9 -3 8 -20 9 -20 9 1 1 12 11 26 24 32 l22 11 -24 0 c-17 1 -22 5
-17 17 3 9 6 20 6 25 0 6 5 7 10 4 8 -5 7 -12 -2 -23 -11 -13 -10 -15 4 -9 20
7 63 -45 55 -66 -4 -7 -6 -6 -6 4 -2 28 -25 41 -46 25 -22 -16 -14 -49 10 -40
13 5 13 9 3 23 -12 14 -11 15 5 2 12 -9 14 -17 7 -26 -7 -8 -2 -10 21 -7 29 4
30 3 20 -16 -9 -18 -8 -19 12 -15 16 3 18 2 8 -5 -14 -10 -7 -32 10 -32 6 0 7
5 3 12 -4 7 -3 8 4 4 7 -4 12 -14 12 -22 0 -44 42 30 66 117 9 30 18 61 20 70
6 17 -100 137 -169 191 -32 26 -39 29 -33 13 35 -86 25 -135 -34 -169 -34 -20
-164 -40 -154 -24 7 11 -18 10 -35 -1 -7 -5 -11 -13 -7 -19 3 -5 -5 -17 -18
-26 -18 -11 -23 -21 -19 -38 10 -40 47 -53 41 -15 -2 12 -9 21 -16 19 -6 -1
-12 3 -12 9 0 6 7 8 16 5 9 -3 18 -6 20 -6 12 0 2 -51 -11 -56 -8 -4 -15 -13
-15 -21 0 -8 -4 -12 -10 -8 -5 3 -7 12 -3 20 3 9 -1 15 -9 15 -9 0 -13 11 -12
35 1 19 -2 35 -7 35 -5 0 -9 -9 -9 -20 0 -17 -2 -19 -14 -8 -12 11 -12 14 0
21 23 13 16 28 -10 21 -14 -3 -27 -1 -31 7 -5 7 -4 10 3 5 5 -3 13 0 15 6 4
10 6 10 6 0 1 -7 5 -10 11 -7 5 3 19 1 31 -5 15 -9 24 -9 32 -1 8 8 6 11 -8
12 -15 0 -16 2 -5 6 8 4 20 12 27 19 10 10 9 13 -3 18 -23 9 -34 7 -34 -4 0
-5 8 -7 18 -3 13 5 14 3 5 -7 -9 -10 -15 -9 -32 2 -12 8 -18 18 -13 23 4 4 -1
5 -10 2 -10 -4 -18 -2 -18 3 0 5 -7 6 -17 3 -11 -4 -14 -3 -9 5 4 7 2 12 -4
12 -7 0 -9 -7 -6 -16 3 -9 6 -17 6 -20 0 -2 7 0 17 3 12 5 14 3 8 -7 -6 -10
-4 -12 8 -7 8 3 21 -1 27 -9 15 -17 8 -18 -33 -1 -18 8 -39 12 -47 10 -10 -3
-11 -2 -3 4 25 18 1 60 -62 107 -77 56 -125 124 -125 177 0 30 7 43 34 67 19
16 52 35 73 42 21 7 42 15 48 18 20 12 -43 20 -160 21 -95 0 -138 -5 -210 -24z
m59 -181 c25 -25 20 -71 -10 -91 -24 -15 -29 -15 -53 -2 -34 19 -39 61 -12 88
25 25 54 27 75 5z m301 -196 c19 -22 19 -22 -10 2 -48 40 -51 43 -30 32 11 -6
29 -21 40 -34z m389 -63 c-8 -20 -12 -39 -10 -44 3 -4 0 -8 -7 -8 -7 0 -13 8
-13 18 0 10 4 15 8 13 13 -8 9 11 -4 25 -11 10 -9 11 5 5 10 -3 17 -3 16 2 -3
16 1 24 10 24 6 0 3 -16 -5 -35z m-317 9 c-3 -3 -12 -4 -19 -1 -8 3 -5 6 6 6
11 1 17 -2 13 -5z m203 -44 c5 0 11 4 15 10 3 5 13 6 22 3 12 -5 15 -2 10 10
-8 23 0 22 12 -1 8 -15 5 -18 -17 -20 -15 -1 -29 -7 -30 -13 -6 -17 -32 12
-31 35 2 20 2 20 6 -1 2 -13 8 -23 13 -23z m-30 16 c0 -19 -31 -29 -44 -16 -8
8 -6 9 5 5 10 -4 19 0 22 9 8 20 17 21 17 2z m70 -53 c0 -14 -3 -23 -7 -19
-10 10 -11 46 -1 46 4 0 8 -12 8 -27z m17 5 c-3 -8 -6 -5 -6 6 -1 11 2 17 5
13 3 -3 4 -12 1 -19z m-93 4 c3 -5 -1 -9 -9 -9 -8 0 -12 4 -9 9 3 4 7 8 9 8 2
0 6 -4 9 -8z m26 -12 c0 -11 -7 -20 -15 -20 -9 0 -12 -6 -8 -17 4 -11 3 -14
-5 -9 -7 4 -12 3 -12 -3 0 -5 6 -11 13 -13 6 -3 -3 -5 -22 -5 -34 0 -34 0 -13
18 12 9 22 20 22 23 0 5 31 43 38 45 1 1 2 -8 2 -19z m20 -40 c-6 -4 -12 -17
-13 -28 -1 -16 -8 -22 -24 -22 -24 0 -28 -12 -25 -70 l2 -25 -10 23 c-14 33
-2 72 26 84 13 6 21 14 19 19 -3 4 -1 10 5 14 5 3 10 18 11 33 l0 27 10 -24
c7 -17 6 -27 -1 -31z m20 -69 c0 -6 -4 -12 -8 -15 -5 -3 -9 1 -9 9 0 8 4 15 9
15 4 0 8 -4 8 -9z m-30 -23 c0 -4 -6 -8 -14 -8 -8 0 -17 4 -20 8 -2 4 4 8 15
8 10 0 19 -4 19 -8z m25 -18 c-3 -5 -21 -9 -38 -9 l-32 2 35 7 c19 4 36 8 38
9 2 0 0 -3 -3 -9z m-94 -42 c11 -21 11 -22 -4 -9 -10 7 -17 17 -17 22 0 15 9
10 21 -13z m109 -62 c0 -2 -7 -7 -16 -10 -8 -3 -12 -2 -9 4 6 10 25 14 25 6z"/>
<path d="M3880 6070 c-11 -7 -11 -10 -2 -10 7 0 10 -5 7 -10 -4 -6 -1 -17 5
-25 14 -17 45 -20 34 -4 -4 8 1 9 16 4 15 -5 20 -4 16 4 -4 6 -14 11 -22 11
-8 0 -14 7 -14 15 0 9 -6 12 -17 8 -11 -4 -14 -3 -9 5 9 14 6 15 -14 2z"/>
<path d="M6097 6030 c-87 -56 -167 -119 -167 -133 0 -5 23 12 52 38 28 25 87
68 132 95 44 28 76 50 71 50 -6 0 -45 -23 -88 -50z"/>
<path d="M3355 6002 c7 -44 -8 -90 -35 -109 -11 -8 -20 -20 -20 -27 0 -8 -11
-13 -27 -12 -25 1 -27 -2 -28 -37 -2 -43 9 -55 32 -35 14 11 15 10 9 -10 -6
-18 -4 -22 13 -22 12 0 21 5 21 10 0 6 -3 10 -7 10 -5 0 -13 11 -20 25 -6 14
-7 23 -2 19 5 -3 9 -1 9 5 0 5 -10 12 -22 14 -20 4 -19 4 5 6 24 1 27 -3 27
-29 0 -20 5 -30 15 -30 9 0 12 -6 9 -15 -4 -9 0 -15 7 -15 11 0 11 -2 1 -8
-17 -11 -5 -42 17 -43 10 0 11 -2 4 -6 -18 -6 -16 -23 1 -23 15 0 46 -80 45
-115 -1 -11 3 -40 8 -65 13 -60 8 -199 -7 -240 -1 -3 -2 -13 -1 -22 2 -12 -5
-18 -21 -19 -13 0 13 -11 57 -24 44 -12 91 -27 105 -33 22 -8 26 -7 26 8 0 10
-5 16 -10 13 -5 -4 -7 1 -3 11 4 10 12 61 19 113 22 179 -15 390 -96 551 -33
65 -120 192 -132 192 -3 0 -3 -17 1 -38z"/>
<path d="M7110 6037 c0 -3 12 -12 26 -22 15 -9 23 -12 20 -6 -7 11 -46 35 -46
28z"/>
<path d="M7215 5960 c10 -11 20 -20 23 -20 3 0 -3 9 -13 20 -10 11 -20 20 -23
20 -3 0 3 -9 13 -20z"/>
<path d="M7295 5890 c27 -27 51 -50 54 -50 3 0 -17 23 -44 50 -27 28 -51 50
-54 50 -3 0 17 -22 44 -50z"/>
<path d="M3060 5907 c0 -25 2 -27 20 -17 11 6 18 15 15 21 -9 14 -17 11 -10
-3 4 -7 -1 -4 -9 6 -15 19 -16 19 -16 -7z"/>
<path d="M3030 5900 c0 -11 4 -20 9 -20 6 0 9 9 8 20 -1 11 -5 20 -9 20 -4 0
-8 -9 -8 -20z"/>
<path d="M3900 5900 c-6 -11 -8 -20 -6 -20 3 0 10 9 16 20 6 11 8 20 6 20 -3
0 -10 -9 -16 -20z"/>
<path d="M3190 5860 c0 -5 5 -10 10 -10 6 0 10 5 10 10 0 6 -4 10 -10 10 -5 0
-10 -4 -10 -10z"/>
<path d="M3215 5851 c-3 -11 -13 -25 -23 -33 -15 -12 -16 -11 -3 5 11 15 11
17 -2 17 -25 0 -30 -32 -8 -54 11 -11 24 -17 28 -12 4 4 1 11 -7 16 -11 7 -7
10 14 16 17 4 23 9 16 14 -15 9 -15 21 0 30 8 5 9 10 2 14 -6 3 -13 -2 -17
-13z"/>
<path d="M7390 5780 c12 -16 24 -30 26 -30 3 0 -4 14 -16 30 -12 17 -24 30
-26 30 -3 0 4 -13 16 -30z"/>
<path d="M3214 5783 c1 -15 30 -53 40 -53 2 0 2 9 -1 20 -3 11 -9 20 -14 20
-5 0 -9 7 -9 15 0 8 -4 15 -9 15 -5 0 -8 -8 -7 -17z"/>
<path d="M3160 5775 c7 -9 15 -13 17 -11 7 7 -7 26 -19 26 -6 0 -6 -6 2 -15z"/>
<path d="M3190 5750 c0 -5 -8 -7 -17 -3 -10 3 -15 2 -11 -2 10 -10 68 -14 68
-4 0 4 -7 10 -16 13 -21 8 -24 8 -24 -4z"/>
<path d="M3220 5710 c0 -5 5 -10 10 -10 6 0 10 5 10 10 0 6 -4 10 -10 10 -5 0
-10 -4 -10 -10z"/>
<path d="M3806 5705 c-3 -9 -6 -22 -5 -28 0 -7 5 -1 10 12 5 13 8 26 5 28 -2
2 -6 -3 -10 -12z"/>
<path d="M4675 5698 c-3 -7 -15 -44 -28 -83 -26 -77 -32 -81 -129 -84 -27 0
-48 -4 -48 -8 0 -5 15 -18 33 -30 17 -13 50 -38 71 -56 l39 -34 -27 -82 c-15
-45 -26 -86 -24 -91 2 -4 36 19 76 52 l74 60 83 -36 c124 -53 126 -51 55 54
l-41 60 56 73 c30 41 55 76 55 80 0 3 -30 3 -67 0 l-68 -5 -45 67 c-49 74 -58
82 -65 63z"/>
<path d="M5095 5698 c-2 -7 -6 -35 -8 -62 -4 -43 -1 -55 30 -103 18 -29 37
-52 41 -49 4 2 6 33 4 69 -3 50 -7 65 -17 61 -10 -4 -12 1 -8 15 6 22 -14 54
-27 46 -5 -3 -6 4 -3 15 6 21 -5 28 -12 8z"/>
<path d="M7450 5690 c6 -11 13 -20 16 -20 2 0 0 9 -6 20 -6 11 -13 20 -16 20
-2 0 0 -9 6 -20z"/>
<path d="M2590 5641 c0 -48 -1 -49 -42 -69 l-43 -20 53 -18 c54 -19 55 -22 52
-86 -1 -21 2 -38 7 -38 4 0 21 20 37 45 l28 46 59 -7 c69 -8 77 4 24 38 -39
26 -40 28 -20 83 20 55 19 57 -20 38 -33 -16 -35 -16 -74 10 -22 15 -45 27
-51 27 -5 0 -10 -22 -10 -49z"/>
<path d="M3127 5640 c-4 -16 -4 -36 -1 -44 3 -8 -3 -19 -15 -26 -17 -8 -21
-20 -21 -59 0 -35 4 -51 16 -55 25 -10 41 -6 22 5 -10 5 -18 15 -18 21 0 7 4
7 14 -1 10 -9 15 -8 18 1 5 13 4 25 -6 101 -3 21 -1 48 5 60 9 20 9 20 6 -5
-3 -16 0 -28 4 -28 9 0 11 6 13 33 1 6 6 15 11 19 6 4 -2 8 -16 8 -21 0 -28
-6 -32 -30z m0 -94 c-3 -7 -1 -19 4 -25 5 -6 2 -5 -7 3 -9 8 -13 19 -10 25 10
16 19 14 13 -3z"/>
<path d="M5282 5665 c4 -4 0 -20 -9 -35 -18 -31 -11 -106 9 -94 6 4 8 3 5 -3
-3 -5 0 -27 8 -49 10 -28 19 -38 32 -37 10 1 12 0 6 -3 -16 -7 -16 -34 -2 -71
15 -37 20 -74 20 -155 0 -38 4 -68 9 -68 9 0 25 39 47 110 25 86 27 250 2 235
-5 -4 -6 1 -3 9 3 9 1 16 -5 16 -6 0 -11 7 -11 15 0 7 -8 18 -17 24 -10 5 -17
12 -16 15 5 17 -11 46 -23 42 -7 -3 -11 0 -9 7 3 7 -8 21 -23 31 -15 11 -24
16 -20 11z m68 -125 c0 -5 -2 -10 -4 -10 -3 0 -8 5 -11 10 -3 6 -1 10 4 10 6
0 11 -4 11 -10z m12 -116 c-9 -16 -10 -14 -9 8 1 15 6 23 11 18 4 -4 4 -16 -2
-26z m-2 -59 c0 -5 -5 -3 -10 5 -5 8 -10 20 -10 25 0 6 5 3 10 -5 5 -8 10 -19
10 -25z m7 -167 c-3 -8 -6 -5 -6 6 -1 11 2 17 5 13 3 -3 4 -12 1 -19z"/>
<path d="M3631 5634 c0 -11 3 -14 6 -6 3 7 2 16 -1 19 -3 4 -6 -2 -5 -13z"/>
<path d="M5681 5614 c0 -11 3 -14 6 -6 3 7 2 16 -1 19 -3 4 -6 -2 -5 -13z"/>
<path d="M6380 5576 c0 -53 0 -54 -40 -70 -22 -9 -40 -18 -40 -20 0 -2 22 -12
50 -21 l49 -16 3 -57 3 -57 34 48 33 49 59 -6 c33 -4 59 -3 59 2 0 5 -16 20
-35 33 -40 27 -41 31 -20 89 8 24 13 45 11 47 -2 3 -19 -3 -36 -12 -32 -17
-33 -16 -77 14 -24 17 -46 31 -48 31 -3 0 -5 -24 -5 -54z"/>
<path d="M2200 5519 c0 -50 -1 -51 -40 -66 -22 -9 -40 -19 -40 -23 0 -3 21
-13 48 -21 l47 -15 3 -52 c2 -29 7 -52 13 -52 5 0 9 3 9 8 0 4 13 23 29 43 29
35 31 35 83 29 29 -4 55 -5 58 -3 3 3 -13 20 -34 38 l-40 33 17 44 c25 65 23
71 -21 49 l-38 -19 -39 29 c-21 16 -42 29 -47 29 -4 0 -8 -23 -8 -51z"/>
<path d="M7050 5500 c-13 -8 -12 -10 3 -10 9 0 17 5 17 10 0 12 -1 12 -20 0z"/>
<path d="M5231 5474 c0 -11 3 -14 6 -6 3 7 2 16 -1 19 -3 4 -6 -2 -5 -13z"/>
<path d="M3277 5461 c-17 -6 -16 -8 7 -19 26 -12 32 -7 18 14 -4 6 -15 8 -25
5z"/>
<path d="M3231 5434 c0 -11 3 -14 6 -6 3 7 2 16 -1 19 -3 4 -6 -2 -5 -13z"/>
<path d="M5227 5429 c-3 -12 -10 -18 -16 -15 -14 9 -22 -44 -12 -79 8 -29 9
-28 16 23 5 34 12 52 21 52 15 0 19 26 5 34 -5 3 -11 -4 -14 -15z"/>
<path d="M3240 5408 c-14 -32 -20 -75 -23 -146 0 -18 -3 -28 -6 -23 -3 5 -11
3 -18 -4 -9 -10 4 -14 64 -19 41 -4 78 -5 81 -2 3 4 -4 6 -15 6 -11 0 -28 9
-38 20 -16 17 -16 20 -3 15 31 -12 43 54 23 125 -5 19 -4 22 4 10 7 -10 11
-11 11 -2 0 16 -36 52 -53 52 -6 0 -19 -15 -27 -32z m55 -88 c-3 -5 -11 -10
-16 -10 -6 0 -7 5 -4 10 3 6 11 10 16 10 6 0 7 -4 4 -10z m-51 -35 c-4 -8 -11
-12 -16 -9 -6 4 -5 10 3 15 19 12 19 11 13 -6z m11 -34 c-3 -6 -11 -11 -16
-11 -5 0 -4 6 3 14 14 16 24 13 13 -3z"/>
<path d="M3631 5414 c0 -11 3 -14 6 -6 3 7 2 16 -1 19 -3 4 -6 -2 -5 -13z"/>
<path d="M7572 5360 c0 -14 2 -19 5 -12 2 6 2 18 0 25 -3 6 -5 1 -5 -13z"/>
<path d="M3132 5331 c-11 -7 -10 -9 3 -14 9 -4 14 -3 10 2 -3 5 1 12 7 14 7 3
9 6 3 6 -5 0 -16 -3 -23 -8z"/>
<path d="M7582 5300 c0 -14 2 -19 5 -12 2 6 2 18 0 25 -3 6 -5 1 -5 -13z"/>
<path d="M3105 5300 c-3 -5 -1 -10 4 -10 6 0 11 5 11 10 0 6 -2 10 -4 10 -3 0
-8 -4 -11 -10z"/>
<path d="M3071 5258 c-11 -30 -11 -31 8 -14 11 10 17 24 14 32 -7 20 -10 18
-22 -18z"/>
<path d="M7063 5273 c-7 -3 -13 -14 -12 -26 0 -15 2 -17 6 -7 3 8 11 18 17 22
13 9 5 17 -11 11z"/>
<path d="M7013 5253 c9 -9 20 -13 24 -9 4 4 1 11 -7 16 -25 16 -35 11 -17 -7z"/>
<path d="M7215 5249 c-8 -23 -22 -105 -31 -181 -5 -34 -3 -48 5 -48 7 0 10 4
7 8 -2 4 0 14 6 22 8 12 9 12 4 -2 -3 -10 -1 -18 4 -18 6 0 10 -5 10 -11 0 -5
-4 -8 -8 -5 -23 14 -48 -51 -66 -174 -1 -8 -8 -25 -14 -37 -15 -27 -15 -45 -1
-19 9 15 13 16 21 5 8 -11 9 -11 5 2 -3 9 0 22 6 28 9 9 8 14 -3 22 -12 8 -10
9 8 4 12 -3 22 -2 22 3 0 5 9 12 21 15 13 4 18 10 14 17 -4 7 -1 16 6 21 11 7
11 9 1 9 -10 0 -10 4 2 15 8 9 13 22 10 30 -4 9 0 15 10 15 9 0 16 8 16 20 0
11 4 20 8 20 16 0 6 124 -13 160 -10 19 -18 43 -16 52 1 13 -2 16 -13 12 -9
-3 -16 -1 -16 5 0 6 5 11 10 11 6 0 10 5 10 10 0 18 -19 10 -25 -11z m25 -79
c-24 -15 -36 -11 -14 4 10 8 21 12 24 10 2 -3 -2 -9 -10 -14z m25 -20 c3 -6
-1 -7 -9 -4 -18 7 -21 14 -7 14 6 0 13 -4 16 -10z m-42 -27 c-4 -11 -3 -14 5
-9 7 4 12 2 12 -3 0 -13 -3 -13 -24 -5 -15 6 -11 34 5 34 4 0 5 -7 2 -17z m57
-13 c0 -5 -7 -10 -16 -10 -8 0 -12 5 -9 10 3 6 10 10 16 10 5 0 9 -4 9 -10z
m-60 -26 c0 -2 -7 -4 -15 -4 -8 0 -15 4 -15 10 0 5 7 7 15 4 8 -4 15 -8 15
-10z m43 -1 c-7 -2 -19 -2 -25 0 -7 3 -2 5 12 5 14 0 19 -2 13 -5z m-6 -75 c0
-18 -2 -28 -4 -21 -3 8 -13 9 -35 2 -18 -5 -34 -7 -36 -4 -3 3 9 8 27 11 22 5
30 11 27 21 -3 8 -1 11 4 8 6 -3 10 -1 10 4 0 6 2 11 3 11 2 0 4 -15 4 -32z
m-63 -88 c-10 -4 -21 -6 -24 -3 -8 7 24 22 34 16 5 -4 1 -10 -10 -13z m26 -14
c0 -2 -7 -9 -15 -16 -13 -11 -14 -10 -9 4 5 14 24 23 24 12z"/>
<path d="M6190 5208 l0 -53 -47 -21 -46 -20 56 -18 56 -18 3 -55 3 -55 34 47
33 47 59 -7 c33 -4 59 -3 59 2 0 4 -16 19 -35 33 -38 28 -40 37 -20 95 8 21
13 41 11 42 -2 2 -20 -4 -40 -12 -35 -15 -38 -15 -69 8 -57 43 -57 43 -57 -15z"/>
<path d="M7584 5182 c-1 -38 1 -50 6 -37 11 25 12 95 3 95 -5 0 -9 -26 -9 -58z"/>
<path d="M7026 5222 c-9 -14 10 -33 27 -26 21 8 22 20 1 28 -20 8 -22 8 -28
-2z"/>
<path d="M3068 5213 c12 -2 32 -2 45 0 12 2 2 4 -23 4 -25 0 -35 -2 -22 -4z"/>
<path d="M3008 5203 c6 -2 18 -2 25 0 6 3 1 5 -13 5 -14 0 -19 -2 -12 -5z"/>
<path d="M6940 5109 c0 -50 -1 -51 -40 -66 -22 -9 -40 -19 -40 -23 0 -4 21
-14 48 -22 l47 -15 5 -59 5 -58 19 29 c33 51 53 65 96 65 45 0 52 16 20 45
-24 21 -26 45 -5 45 9 0 14 9 14 23 0 12 2 32 6 45 6 16 3 22 -8 22 -9 0 -18
-4 -21 -9 -3 -4 -20 -11 -37 -15 -23 -4 -38 0 -63 19 -18 14 -36 25 -39 25 -4
0 -7 -23 -7 -51z m59 -73 c-7 -14 -16 -26 -21 -26 -5 0 -1 14 7 31 20 37 31
33 14 -5z"/>
<path d="M5350 5125 c-6 -8 -10 -19 -8 -24 1 -6 8 1 15 14 13 28 11 31 -7 10z"/>
<path d="M7581 5104 c0 -11 3 -14 6 -6 3 7 2 16 -1 19 -3 4 -6 -2 -5 -13z"/>
<path d="M3680 5096 c0 -3 9 -10 20 -16 11 -6 20 -8 20 -6 0 3 -9 10 -20 16
-11 6 -20 8 -20 6z"/>
<path d="M7571 5034 c0 -11 3 -14 6 -6 3 7 2 16 -1 19 -3 4 -6 -2 -5 -13z"/>
<path d="M7135 4960 c3 -5 8 -10 11 -10 2 0 4 5 4 10 0 6 -5 10 -11 10 -5 0
-7 -4 -4 -10z"/>
<path d="M6379 4928 c0 -2 -2 -25 -4 -51 -4 -50 -23 -76 -57 -77 -37 0 -25
-19 25 -36 l52 -19 5 -52 5 -52 30 45 30 44 65 -6 65 -5 -43 38 -44 38 21 53
c11 28 19 52 17 52 -2 0 -20 -7 -40 -15 -36 -15 -38 -15 -81 15 -25 17 -45 30
-46 28z"/>
<path d="M7366 4873 c-6 -14 -5 -15 5 -6 7 7 10 15 7 18 -3 3 -9 -2 -12 -12z"/>
<path d="M5028 4773 c6 -2 18 -2 25 0 6 3 1 5 -13 5 -14 0 -19 -2 -12 -5z"/>
<path d="M4915 4745 c-39 -18 -31 -18 25 -1 25 8 36 15 25 15 -11 0 -33 -6
-50 -14z"/>
<path d="M7310 4740 c0 -5 5 -10 11 -10 5 0 7 5 4 10 -3 6 -8 10 -11 10 -2 0
-4 -4 -4 -10z"/>
<path d="M3457 4717 c-23 -36 -21 -45 4 -19 11 13 19 28 17 34 -2 6 -12 -1
-21 -15z"/>
<path d="M5075 4710 c-139 -22 -321 -96 -458 -187 -32 -21 -94 -75 -139 -118
-80 -78 -84 -81 -45 -20 l19 30 -22 -25 c-38 -43 -103 -163 -137 -252 -63
-168 -85 -373 -54 -513 21 -97 71 -246 81 -240 5 3 44 -10 87 -29 100 -45 250
-102 287 -111 l29 -6 -22 33 c-128 191 -161 415 -98 659 71 273 201 361 466
315 200 -35 370 -144 479 -309 33 -49 38 -42 12 18 -11 26 -19 49 -18 51 2 1
21 -18 44 -42 22 -24 38 -47 35 -50 -3 -3 3 -12 13 -20 14 -10 16 -14 5 -14
-10 -1 -9 -5 5 -15 11 -8 15 -15 9 -15 -6 0 -9 -9 -6 -20 3 -11 10 -20 17 -20
14 0 18 53 5 61 -6 3 -4 11 4 17 12 10 14 5 12 -28 -2 -39 14 -70 16 -33 1 10
3 36 5 58 4 50 -5 107 -15 101 -4 -3 -6 -18 -3 -34 2 -16 0 -32 -5 -35 -11 -7
-8 60 4 75 16 20 22 57 11 60 -6 2 -12 17 -14 32 -3 26 -2 27 11 10 10 -14 10
-21 2 -26 -9 -6 -9 -8 -1 -8 6 0 17 7 24 15 10 12 17 12 34 3 20 -11 20 -10 6
7 -14 17 -13 18 3 12 15 -6 16 -4 7 14 -9 15 -8 24 2 37 11 13 11 15 -4 9 -10
-3 -18 -2 -18 4 0 6 8 9 18 7 9 -2 16 -11 16 -20 -1 -10 4 -14 13 -11 8 3 12
14 8 27 -2 11 -2 15 1 9 3 -7 17 -13 30 -13 25 0 26 5 8 72 -3 10 3 21 14 27
22 12 42 60 42 102 0 20 -12 37 -49 68 -27 23 -51 41 -54 41 -3 0 1 -16 9 -35
21 -51 18 -100 -8 -128 -29 -30 -60 -47 -88 -47 -12 0 -19 -3 -17 -7 3 -5 -3
-16 -13 -25 -14 -15 -17 -15 -17 -3 0 8 5 15 11 16 6 0 0 5 -13 10 -14 5 -31
7 -39 4 -8 -3 -20 0 -28 5 -7 6 -28 12 -47 13 -19 1 -33 5 -31 8 2 3 -13 13
-32 23 -20 9 -33 13 -30 8 7 -11 -31 -8 -41 3 -5 4 -3 5 4 1 6 -3 14 -2 18 4
3 5 -3 10 -14 10 -10 0 -21 4 -23 8 -1 4 -29 29 -62 55 -32 26 -68 59 -79 73
-27 35 -45 90 -39 120 6 32 56 70 122 93 40 14 48 20 33 26 -29 11 -232 15
-298 5z m-11 -209 c26 -28 17 -73 -16 -89 -62 -29 -116 40 -69 87 26 26 63 27
85 2z m421 -211 c3 -5 1 -10 -4 -10 -6 0 -11 5 -11 10 0 6 2 10 4 10 3 0 8 -4
11 -10z m10 -30 c-3 -5 -12 -10 -18 -10 -7 0 -6 4 3 10 19 12 23 12 15 0z
m279 -5 c-5 -11 -2 -14 12 -8 18 6 18 6 0 -15 -11 -12 -24 -22 -30 -22 -6 0
-5 4 3 9 7 5 10 14 7 20 -4 6 -4 16 -1 21 9 15 15 12 9 -5z m-229 -13 c-3 -3
-17 -7 -32 -8 -26 -3 -27 -2 -10 11 17 12 55 10 42 -3z m57 -6 c4 -6 12 -6 21
2 12 10 16 9 21 -3 4 -10 2 -14 -5 -9 -6 4 -14 2 -18 -4 -4 -6 -18 -1 -36 14
-20 17 -23 22 -10 18 11 -4 23 -12 27 -18z m-12 -21 c9 -10 9 -15 1 -15 -6 0
-11 5 -11 11 0 7 -10 9 -27 5 -21 -5 -24 -4 -13 4 21 14 36 12 50 -5z m-60
-40 c0 -11 -4 -25 -8 -32 -4 -6 -7 8 -7 32 0 24 3 38 7 32 4 -7 8 -21 8 -32z
m309 12 c0 -9 -2 -9 -6 1 -2 6 -8 10 -13 7 -4 -3 -11 2 -14 10 -4 13 -2 14 14
5 11 -6 20 -16 19 -23z m-51 11 c-2 -6 -12 -12 -21 -14 -9 -1 -15 2 -11 7 3 5
10 7 15 4 5 -4 9 -1 9 4 0 6 3 11 6 11 3 0 4 -5 2 -12z m-278 -24 c0 -2 -9 0
-20 6 -11 6 -20 13 -20 16 0 2 9 0 20 -6 11 -6 20 -13 20 -16z m93 -8 c3 -8
-2 -20 -11 -28 -11 -9 -14 -10 -8 0 8 14 5 15 -18 6 -9 -3 -13 -11 -9 -18 3
-6 2 -7 -2 -3 -14 13 -14 36 0 31 7 -3 19 2 26 10 17 19 16 19 22 2z m42 4
c-3 -5 -12 -10 -18 -10 -7 0 -6 4 3 10 19 12 23 12 15 0z m43 -6 c4 2 8 -8 8
-22 2 -26 1 -26 -9 -4 -5 12 -14 22 -19 22 -5 0 -6 5 -2 12 6 9 9 9 12 0 2 -7
7 -10 10 -8z m52 -19 c7 -8 9 -15 6 -15 -4 0 -14 7 -22 15 -9 8 -11 15 -6 15
5 0 15 -7 22 -15z m-73 -1 c-3 -3 -12 -4 -19 -1 -8 3 -5 6 6 6 11 1 17 -2 13
-5z m-54 -19 c-3 -9 -8 -14 -10 -11 -3 3 -2 9 2 15 9 16 15 13 8 -4z m-5 -41
c4 2 7 -18 7 -45 1 -33 -2 -44 -8 -34 -4 8 -6 24 -2 34 3 11 -1 25 -9 34 -8 8
-12 18 -8 21 4 4 8 2 10 -3 2 -6 7 -9 10 -7z m-18 -44 c0 -5 -5 -10 -11 -10
-5 0 -7 5 -4 10 3 6 8 10 11 10 2 0 4 -4 4 -10z m90 -10 c0 -11 -2 -20 -4 -20
-2 0 -6 9 -9 20 -3 11 -1 20 4 20 5 0 9 -9 9 -20z m-30 6 c0 -2 -7 -7 -16 -10
-8 -3 -12 -2 -9 4 6 10 25 14 25 6z m-16 -65 c4 -5 -3 -7 -14 -4 -23 6 -26 13
-6 13 8 0 17 -4 20 -9z m-9 -21 c3 -5 1 -10 -4 -10 -6 0 -11 5 -11 10 0 6 2
10 4 10 3 0 8 -4 11 -10z m-1315 -470 c0 -5 -2 -10 -4 -10 -3 0 -8 5 -11 10
-3 6 -1 10 4 10 6 0 11 -4 11 -10z m17 -42 c-3 -8 -6 -5 -6 6 -1 11 2 17 5 13
3 -3 4 -12 1 -19z m19 -36 c1 -7 0 -8 -3 -2 -2 5 -9 8 -14 4 -5 -3 -9 0 -9 6
0 15 23 7 26 -8z"/>
<path d="M5700 4676 c0 -3 14 -12 30 -21 17 -9 30 -13 30 -11 0 3 -13 12 -30
21 -16 9 -30 13 -30 11z"/>
<path d="M3503 4640 c1 -18 9 -26 25 -28 21 -3 23 0 18 20 -4 17 -2 15 8 -6 7
-16 16 -24 20 -18 16 27 -25 62 -49 42 -9 -8 -15 -7 -19 2 -3 7 -4 2 -3 -12z"/>
<path d="M7096 4525 c-9 -26 -7 -32 5 -12 6 10 9 21 6 23 -2 3 -7 -2 -11 -11z"/>
<path d="M4161 4434 c0 -11 3 -14 6 -6 3 7 2 16 -1 19 -3 4 -6 -2 -5 -13z"/>
<path d="M4172 4380 c0 -14 2 -19 5 -12 2 6 2 18 0 25 -3 6 -5 1 -5 -13z"/>
<path d="M3090 4340 l0 -51 -47 -20 -48 -20 55 -20 c30 -10 55 -19 57 -19 1 0
3 -24 5 -52 l3 -53 29 43 30 44 57 -4 c32 -1 60 0 64 4 4 3 -12 19 -34 34 -23
14 -41 27 -41 28 0 0 9 25 20 55 l21 54 -23 -8 c-58 -17 -67 -17 -101 9 -19
14 -37 26 -40 26 -4 0 -7 -23 -7 -50z"/>
<path d="M6840 4376 c0 -2 7 -6 15 -10 8 -3 15 -1 15 4 0 6 -7 10 -15 10 -8 0
-15 -2 -15 -4z"/>
<path d="M5916 4325 c-10 -49 -27 -85 -41 -85 -9 0 -9 -13 -1 -50 5 -28 13
-47 16 -43 4 5 19 48 35 96 25 79 27 90 13 103 -14 14 -16 12 -22 -21z"/>
<path d="M3802 4304 c-7 -13 -17 -24 -24 -23 -10 0 -10 2 0 6 17 7 15 23 -3
23 -16 0 -21 -25 -6 -34 4 -3 7 -18 5 -33 l-4 -28 15 30 c13 25 15 26 11 6 -3
-14 -1 -20 4 -15 5 5 10 23 13 39 l4 30 2 -32 c1 -33 14 -41 39 -25 9 6 10 15
3 33 l-9 24 -11 -25 c-11 -25 -12 -25 -7 -1 3 13 -1 30 -8 37 -11 10 -15 8
-24 -12z"/>
<path d="M4044 4292 l-59 -37 33 -3 c35 -3 64 15 84 51 16 31 5 28 -58 -11z"/>
<path d="M4182 4290 c0 -19 2 -27 5 -17 2 9 2 25 0 35 -3 9 -5 1 -5 -18z"/>
<path d="M5961 4289 c-25 -67 -72 -232 -67 -237 3 -3 6 2 6 12 0 15 2 15 14 3
37 -37 99 -216 116 -335 13 -92 9 -259 -7 -284 -4 -7 -8 -24 -9 -38 -3 -46 -4
-51 -11 -47 -5 3 -13 -1 -20 -8 -10 -11 -10 -15 0 -18 7 -3 3 -6 -8 -6 -17 -1
-17 -3 -5 -11 13 -8 12 -10 -2 -10 -20 0 -24 -25 -6 -36 7 -5 3 -10 -12 -16
-16 -6 -26 -5 -32 4 -5 9 -8 10 -8 1 0 -7 8 -17 18 -22 9 -6 13 -11 7 -12 -5
-1 -17 -2 -25 -3 -8 -2 -24 -3 -36 -4 -19 -2 -20 -5 -10 -47 9 -40 13 -44 35
-40 13 2 34 14 47 26 12 11 29 19 36 16 9 -4 7 -6 -4 -6 -16 -1 -40 -31 -37
-48 1 -4 1 -15 0 -23 -2 -10 -5 -8 -11 6 -6 16 -15 20 -34 17 -14 -3 -26 -12
-26 -20 0 -9 -6 -13 -15 -9 -8 3 -15 1 -15 -5 0 -6 -5 -7 -11 -3 -8 4 -7 9 2
15 7 4 10 11 7 14 -11 11 -28 -5 -28 -25 0 -10 6 -21 13 -23 6 -3 2 -6 -10 -6
-13 -1 -23 -5 -23 -11 0 -5 8 -7 18 -4 16 5 16 5 0 -8 -11 -9 -15 -22 -11 -36
3 -13 1 -22 -6 -22 -7 0 -9 -5 -5 -12 4 -7 3 -8 -5 -4 -9 6 -9 11 0 22 6 8 9
17 6 20 -3 3 -12 -3 -19 -15 -7 -12 -16 -21 -21 -21 -4 0 -6 4 -3 8 2 4 0 14
-5 22 -8 13 -11 13 -23 -2 -7 -10 -16 -15 -19 -11 -4 3 1 12 11 19 27 20 3 37
-31 22 -29 -14 -36 -28 -12 -28 15 0 19 -11 15 -39 -1 -9 4 -12 14 -8 9 4 16
2 16 -3 0 -6 -4 -10 -10 -10 -5 0 -10 -5 -10 -11 0 -5 5 -7 12 -3 7 5 8 3 4
-5 -10 -15 -45 18 -39 35 3 7 -8 11 -29 10 -18 -1 -36 2 -39 6 -7 11 -41 -1
-34 -13 3 -4 12 -6 21 -2 12 4 14 -1 10 -23 -3 -15 -1 -33 5 -40 6 -8 5 -13
-5 -17 -11 -4 -13 -1 -9 10 4 11 2 14 -5 9 -12 -7 -13 -56 -2 -56 12 0 185 93
229 123 129 89 270 256 336 400 36 79 81 222 62 196 -10 -13 -12 12 -13 120 0
138 -8 182 -56 326 -23 70 -91 201 -136 264 -31 43 -32 43 -41 20z m90 -960
c-5 -13 -10 -19 -10 -12 -1 15 10 45 15 40 3 -2 0 -15 -5 -28z m-29 -79 c-12
-12 -22 -18 -22 -14 0 12 33 45 38 39 3 -3 -4 -14 -16 -25z m-90 -57 c-8 -13
-19 -20 -25 -16 -6 4 -8 0 -4 -10 3 -10 2 -17 -2 -17 -5 0 -11 7 -15 15 -3 8
-1 15 4 15 6 0 10 9 10 19 0 14 7 18 24 17 22 -1 22 -2 8 -23z m78 7 c0 -5 -7
-7 -15 -4 -8 4 -12 10 -9 15 6 11 24 2 24 -11z m-120 6 c0 -3 -4 -8 -10 -11
-5 -3 -10 -1 -10 4 0 6 5 11 10 11 6 0 10 -2 10 -4z m80 -76 c0 -5 -4 -10 -10
-10 -5 0 -10 5 -10 10 0 6 5 10 10 10 6 0 10 -4 10 -10z m-50 -41 c0 -5 -5 -9
-11 -9 -5 0 -8 -4 -5 -9 10 -15 -18 -28 -44 -20 -16 4 -19 7 -7 8 9 1 17 6 17
11 0 6 7 10 15 10 8 0 15 5 15 11 0 5 -5 7 -12 3 -7 -4 -8 -3 -4 4 7 12 36 5
36 -9z m-65 -67 c-3 -3 -11 0 -18 7 -9 10 -8 11 6 5 10 -3 15 -9 12 -12z
m-115 -72 c0 -5 -2 -10 -4 -10 -3 0 -8 5 -11 10 -3 6 -1 10 4 10 6 0 11 -4 11
-10z m-108 -57 c7 -9 7 -13 0 -13 -13 0 -22 25 -21 53 2 19 2 19 6 -3 3 -14
10 -31 15 -37z m41 23 c7 -17 -20 -30 -29 -14 -4 7 -3 8 4 4 7 -4 12 -3 12 3
0 5 -6 12 -12 14 -8 4 -7 6 3 6 9 1 19 -5 22 -13z"/>
<path d="M5911 3194 c0 -11 3 -14 6 -6 3 7 2 16 -1 19 -3 4 -6 -2 -5 -13z"/>
<path d="M6115 4260 c9 -16 18 -30 21 -30 2 0 -2 14 -11 30 -9 17 -18 30 -21
30 -2 0 2 -13 11 -30z"/>
<path d="M4183 4215 c0 -22 2 -30 4 -17 2 12 2 30 0 40 -3 9 -5 -1 -4 -23z"/>
<path d="M3844 4228 c-4 -7 -4 -10 1 -6 4 4 14 3 22 -4 15 -12 28 -5 18 11 -9
15 -32 14 -41 -1z"/>
<path d="M3799 4196 c-8 -6 -15 -18 -17 -26 -1 -10 3 -9 14 5 15 18 16 18 10
2 -3 -10 -6 -23 -6 -28 0 -6 -5 -7 -12 -3 -8 5 -8 3 -2 -7 5 -8 9 -23 9 -34 0
-24 32 -28 58 -7 12 11 17 12 17 3 0 -7 4 -10 9 -7 10 7 2 56 -10 56 -4 0 -15
-10 -23 -22 l-16 -22 -1 24 -1 25 -8 -25 c-7 -23 -8 -23 -9 -3 -1 24 14 39 24
23 4 -6 11 -8 16 -4 6 3 0 14 -12 25 -12 10 -17 19 -11 19 6 0 18 -7 27 -16 9
-10 20 -13 25 -8 14 15 -64 43 -81 30z"/>
<path d="M3650 4170 c-8 -5 -10 -10 -5 -10 6 0 17 5 25 10 8 5 11 10 5 10 -5
0 -17 -5 -25 -10z"/>
<path d="M2790 4149 c0 -5 5 -7 10 -4 6 3 10 8 10 11 0 2 -4 4 -10 4 -5 0 -10
-5 -10 -11z"/>
<path d="M3679 4145 c-22 -12 -27 -22 -27 -57 -1 -64 -23 -75 -78 -37 -24 16
-45 27 -45 24 -1 -3 -3 -9 -4 -15 -1 -5 -3 -27 -4 -48 -1 -36 -4 -40 -43 -56
l-43 -18 45 -16 c69 -26 70 -27 64 -82 -3 -28 -2 -50 3 -50 4 0 21 21 37 46
l29 46 59 -5 c32 -3 58 -1 58 3 0 4 -16 21 -36 37 l-36 29 20 52 c19 49 19 52
3 52 -14 0 -17 7 -16 34 3 39 12 59 26 51 5 -4 9 -1 9 5 0 6 5 8 10 5 6 -3 10
-1 10 4 0 14 -9 13 -41 -4z"/>
<path d="M5841 4138 c1 -7 5 -24 9 -38 7 -22 8 -21 9 13 1 20 -3 37 -9 37 -5
0 -10 -6 -9 -12z"/>
<path d="M3850 4070 c0 -11 5 -20 11 -20 5 0 7 5 4 10 -3 6 -1 10 5 10 6 0 8
5 5 10 -10 17 -25 11 -25 -10z"/>
<path d="M3820 4067 c0 -19 -15 -23 -23 -7 -3 6 -4 5 -3 -2 3 -16 18 -20 36
-8 12 7 12 12 2 22 -9 9 -12 9 -12 -5z"/>
<path d="M5226 4009 c-27 -39 -31 -41 -67 -35 -20 3 -45 9 -54 12 -12 5 -8 -7
14 -43 17 -28 31 -54 31 -58 0 -4 -17 -30 -37 -58 -29 -39 -33 -49 -18 -43
103 41 110 40 172 -18 18 -16 35 -27 39 -24 3 3 1 23 -5 45 -17 60 -14 67 38
98 28 16 48 32 46 35 -3 4 -22 10 -43 14 -37 5 -40 8 -54 58 -8 28 -19 53 -24
55 -5 1 -22 -16 -38 -38z"/>
<path d="M3820 4032 c0 -2 5 -12 10 -23 6 -11 7 -19 2 -19 -6 0 -12 9 -15 20
-7 28 -27 25 -27 -5 0 -34 1 -31 -16 -71 -8 -20 -13 -38 -10 -41 9 -10 34 6
46 28 7 12 8 19 2 15 -6 -3 -12 -1 -14 6 -3 7 9 22 25 33 36 24 47 65 17 62
-11 -1 -20 -3 -20 -5z m-38 -124 c-8 -8 -9 -4 -5 13 4 13 8 18 11 10 2 -7 -1
-18 -6 -23z"/>
<path d="M6211 4004 c0 -11 3 -14 6 -6 3 7 2 16 -1 19 -3 4 -6 -2 -5 -13z"/>
<path d="M3000 3852 c0 -50 -7 -58 -62 -76 -30 -9 -20 -23 27 -37 25 -7 45
-18 45 -24 1 -17 12 -90 14 -92 2 -2 17 16 34 40 l31 43 63 -3 63 -4 -41 36
-42 36 19 49 c20 54 19 56 -30 39 -28 -10 -36 -8 -71 15 -22 14 -42 26 -45 26
-3 0 -5 -22 -5 -48z"/>
<path d="M6232 3870 c0 -14 2 -19 5 -12 2 6 2 18 0 25 -3 6 -5 1 -5 -13z"/>
<path d="M5853 3848 c2 -7 -2 -20 -10 -29 -19 -23 -25 -52 -28 -148 -2 -52 0
-79 6 -70 7 11 9 11 9 -3 0 -10 -4 -18 -9 -18 -5 0 -12 -17 -16 -37 -5 -28 -3
-40 9 -49 14 -10 14 -12 2 -17 -8 -3 -17 -3 -19 1 -2 4 -2 1 0 -7 2 -7 0 -19
-5 -25 -4 -6 -13 -22 -19 -36 -9 -23 -8 -26 9 -27 16 -2 17 1 7 13 -10 12 -9
13 6 8 14 -6 16 -3 11 14 -4 11 -2 23 3 27 7 3 8 0 5 -10 -12 -30 21 -5 40 30
16 28 17 39 7 57 l-11 23 6 -22 c3 -14 1 -23 -6 -23 -6 0 -8 5 -5 10 3 6 1 10
-4 10 -6 0 -11 -5 -11 -12 0 -6 -3 -8 -6 -5 -4 4 -1 14 7 24 13 15 12 16 -6 9
-16 -6 -17 -5 -8 5 16 16 43 20 43 7 0 -6 6 -5 15 2 8 7 15 9 15 4 0 -5 5 -1
11 9 9 14 7 21 -8 32 -17 13 -17 14 3 9 14 -4 23 0 28 11 5 13 1 15 -17 10
-21 -6 -21 -5 2 8 15 9 20 17 12 21 -6 4 -11 2 -11 -4 0 -6 -4 -9 -9 -6 -13 8
-42 -4 -36 -15 3 -4 -4 -6 -16 -4 -24 5 -38 15 -21 15 7 0 12 10 12 23 0 18
-2 19 -11 7 -8 -12 -9 -10 -7 10 3 25 24 55 39 55 4 0 11 3 15 8 4 4 1 7 -6 7
-11 0 -11 3 -2 12 17 17 15 29 -3 22 -8 -4 -15 -12 -15 -19 0 -7 -7 -19 -17
-26 -15 -13 -15 -12 0 17 9 17 23 34 30 37 19 7 19 54 0 61 -9 4 -13 1 -10 -6z
m17 -36 c0 -5 -7 -9 -15 -9 -8 0 -12 4 -9 9 3 4 9 8 15 8 5 0 9 -4 9 -8z m0
-230 c0 -15 -2 -15 -10 -2 -8 12 -10 12 -10 1 0 -8 -2 -12 -5 -9 -3 3 -3 13 1
22 7 19 24 11 24 -12z m-27 -117 c-3 -9 -8 -14 -10 -11 -3 3 -2 9 2 15 9 16
15 13 8 -4z"/>
<path d="M6241 3835 c-1 -5 -4 -44 -6 -85 -3 -64 -2 -69 6 -35 6 22 8 60 6 85
-2 25 -4 41 -6 35z"/>
<path d="M5890 3794 c0 -8 5 -12 10 -9 6 4 8 11 5 16 -9 14 -15 11 -15 -7z"/>
<path d="M5667 3793 c-12 -12 -7 -22 8 -17 8 4 15 10 15 15 0 11 -14 12 -23 2z"/>
<path d="M5880 3760 c0 -5 9 -14 19 -20 31 -16 37 -12 13 10 -23 22 -32 25
-32 10z"/>
<path d="M5741 3727 c-13 -21 -12 -21 5 -5 10 10 16 20 13 22 -3 3 -11 -5 -18
-17z"/>
<path d="M5850 3718 c0 -4 15 -8 33 -9 17 0 27 -3 20 -5 -7 -3 -10 -13 -7 -22
5 -15 4 -15 -6 1 -14 22 -55 24 -46 1 3 -9 6 -22 6 -29 0 -11 8 -10 40 2 34
14 38 18 27 31 -10 13 -9 15 8 8 19 -7 18 -6 -2 13 -21 20 -73 26 -73 9z"/>
<path d="M4904 3663 c-15 -21 -29 -40 -30 -42 -2 -2 -24 2 -50 8 -25 7 -49 10
-51 7 -3 -2 9 -25 27 -50 33 -49 33 -50 -13 -108 -33 -43 -25 -46 47 -22 l47
16 49 -41 c56 -47 64 -50 54 -18 -27 83 -26 86 27 119 53 32 62 48 26 48 -37
0 -64 26 -76 75 -6 25 -15 45 -20 45 -5 0 -21 -17 -37 -37z"/>
<path d="M3840 3665 c0 -9 -4 -13 -10 -10 -5 3 -10 1 -10 -5 0 -7 -7 -10 -14
-7 -10 4 -13 1 -9 -9 3 -7 0 -14 -7 -14 -7 0 -10 -7 -6 -16 4 -11 2 -15 -8
-11 -8 3 -17 -1 -20 -9 -4 -10 2 -14 18 -14 17 0 26 7 30 25 4 14 10 24 14 21
4 -2 15 9 24 25 10 16 13 31 7 34 -5 4 -9 -1 -9 -10z"/>
<path d="M5729 3653 c-13 -16 -12 -17 4 -4 16 13 21 21 13 21 -2 0 -10 -8 -17
-17z"/>
<path d="M3827 3608 c-25 -26 -16 -33 12 -9 12 11 18 21 14 24 -4 2 -16 -5
-26 -15z"/>
<path d="M5408 3568 l-34 -41 -44 11 c-25 6 -46 9 -48 8 -2 -2 10 -26 27 -52
l30 -48 -35 -47 c-19 -26 -34 -49 -34 -51 0 -3 27 4 60 14 l60 20 47 -42 c53
-46 62 -40 44 27 -11 36 -9 39 21 65 18 15 41 30 51 33 28 10 19 22 -25 31
-39 9 -42 12 -56 62 -8 28 -18 52 -22 52 -4 0 -23 -19 -42 -42z"/>
<path d="M5675 3569 c-4 -6 -5 -12 -2 -15 2 -3 7 2 10 11 7 17 1 20 -8 4z"/>
<path d="M5870 3533 c1 -18 18 -35 24 -24 4 6 2 11 -4 11 -6 0 -8 5 -5 10 3 6
1 10 -4 10 -6 0 -11 -3 -11 -7z"/>
<path d="M3440 3376 c0 -2 9 -6 20 -9 11 -3 20 -1 20 4 0 5 -9 9 -20 9 -11 0
-20 -2 -20 -4z"/>
<path d="M4322 3363 c34 -70 42 -80 60 -75 12 3 17 10 14 19 -3 8 -1 11 4 8 6
-3 10 -12 10 -18 0 -14 64 -52 123 -73 50 -18 217 -28 217 -14 0 6 -12 10 -28
10 -36 0 -66 10 -197 64 -60 25 -117 46 -125 46 -8 0 -30 9 -48 20 -19 12 -32
17 -30 13z m57 -57 c-3 -3 -11 5 -18 17 -13 21 -12 21 5 5 10 -10 16 -20 13
-22z"/>
<path d="M5742 3335 c-14 -31 -15 -35 -3 -35 9 0 25 49 18 56 -2 2 -9 -7 -15
-21z"/>
<path d="M4396 3233 c108 -167 285 -309 474 -382 81 -31 302 -81 360 -81 19 0
91 12 160 26 185 38 172 34 159 50 -16 19 -46 17 -58 -3 -5 -10 -13 -14 -17
-10 -5 5 -2 12 5 16 9 6 10 11 2 15 -17 11 -13 23 10 29 19 5 20 7 4 36 -16
31 -29 43 -19 17 3 -9 -3 -17 -15 -21 -16 -5 -20 -12 -15 -31 4 -15 2 -24 -6
-24 -6 0 -8 -5 -5 -10 3 -6 -1 -17 -9 -26 -9 -8 -16 -12 -16 -7 0 5 5 14 11
20 8 8 3 13 -20 18 -17 4 -33 15 -36 26 -4 10 -11 19 -17 19 -6 0 -7 -8 -3
-17 5 -15 4 -16 -6 -5 -15 14 -49 16 -49 3 0 -4 -10 -7 -22 -5 -13 2 -66 8
-118 15 -103 12 -189 38 -260 77 -68 38 -219 162 -198 162 3 0 34 -9 68 -20
34 -11 76 -20 92 -20 30 0 29 0 -20 40 -50 39 -51 39 -144 41 -53 1 -110 7
-133 16 -82 29 -98 33 -110 23 -9 -7 -17 -5 -26 7 -13 16 -12 17 4 4 9 -7 17
-9 17 -4 0 9 -42 33 -57 33 -3 0 3 -12 13 -27z m91 -81 c-3 -12 -5 -11 -6 6 0
12 -6 22 -12 22 -5 0 -7 5 -3 11 9 16 27 -16 21 -39z m48 -22 c-3 -5 -14 -10
-23 -9 -14 0 -13 2 3 9 27 11 27 11 20 0z m138 -70 c43 -36 56 -58 16 -27 -51
39 -109 91 -109 98 0 4 10 -1 23 -11 12 -11 44 -37 70 -60z m-113 29 c7 -11 9
-24 5 -27 -3 -3 -8 4 -12 16 -3 12 -9 19 -14 16 -5 -3 -9 0 -9 5 0 18 19 12
30 -10z m35 -29 c3 -5 1 -10 -4 -10 -6 0 -11 5 -11 10 0 6 2 10 4 10 3 0 8 -4
11 -10z m100 -90 c3 -5 1 -10 -4 -10 -6 0 -11 5 -11 10 0 6 2 10 4 10 3 0 8
-4 11 -10z m170 -30 c3 -6 -1 -7 -9 -4 -18 7 -21 14 -7 14 6 0 13 -4 16 -10z
m625 -24 c0 -2 -7 -7 -16 -10 -8 -3 -12 -2 -9 4 6 10 25 14 25 6z m-30 -76
c-6 -11 -16 -20 -23 -19 -9 0 -9 2 1 6 6 2 12 11 12 19 0 8 5 14 10 14 7 0 7
-6 0 -20z m-437 -9 c8 -8 8 -11 0 -11 -7 0 -14 4 -18 10 -3 5 -12 7 -19 4 -8
-3 -17 -1 -20 4 -8 13 44 6 57 -7z m91 -19 c3 -5 -8 -6 -25 -4 -16 2 -29 6
-29 8 0 8 49 4 54 -4z m283 2 c-3 -3 -12 -4 -19 -1 -8 3 -5 6 6 6 11 1 17 -2
13 -5z"/>
<path d="M5847 3150 c3 -11 7 -20 9 -20 2 0 4 9 4 20 0 11 -4 20 -9 20 -5 0
-7 -9 -4 -20z"/>
<path d="M5793 3138 c-36 -12 -38 -16 -22 -38 9 -13 10 -12 5 2 -3 10 -2 17 2
16 15 -3 62 15 62 23 0 11 -5 10 -47 -3z"/>
<path d="M5787 3092 c-4 -6 -14 -9 -22 -5 -8 3 -15 0 -15 -5 0 -6 -7 -18 -16
-27 -16 -15 -15 -18 4 -37 22 -22 47 -16 37 9 -3 9 2 24 11 34 9 10 14 24 12
30 -3 10 -6 10 -11 1z m-28 -43 c-12 -8 -11 -11 1 -19 9 -6 10 -10 3 -10 -6 0
-14 4 -17 9 -9 14 5 42 16 35 6 -4 5 -10 -3 -15z"/>
<path d="M5616 2986 c3 -8 15 -11 30 -8 19 3 22 7 12 13 -21 14 -48 11 -42 -5z"/>
<path d="M5521 2962 c-1 -18 27 -72 39 -72 14 0 25 23 12 28 -7 2 -12 11 -12
19 0 9 -6 13 -14 10 -9 -4 -17 1 -19 11 -3 9 -5 11 -6 4z"/>
<path d="M5419 2929 c-17 -14 -20 -22 -11 -25 6 -3 10 -10 6 -15 -3 -5 -14 1
-24 13 -16 19 -19 20 -20 6 0 -21 35 -42 57 -34 9 4 13 13 9 22 -3 8 -1 24 4
35 14 24 8 24 -21 -2z"/>
<path d="M5490 2880 c-12 -8 -9 -10 13 -10 16 0 26 4 22 10 -8 12 -16 12 -35
0z"/>
</g>
</svg>
